<?xml version="1.0" encoding="UTF-8" standalone="no"?>
<svg
   width="40"
   height="40"
   viewBox="0 0 40 40"
   version="1.1"
   id="svg11"
   xmlns="http://www.w3.org/2000/svg"
   xmlns:svg="http://www.w3.org/2000/svg">
  <defs
     id="defs1">
    <filter
       id="a"
       width="1.0888497"
       height="1.0888496"
       x="-0.044424849"
       y="-0.044424808">
      <feGaussianBlur
         stdDeviation=".958"
         id="feGaussianBlur1" />
    </filter>
  </defs>
  <path
     d="M 20.001,36.254 7.68,8.254 7.742,31.453 19.97,3.417 2.664,19.86 32.277,8.21 7.742,8.269 37.394,19.829 20.001,3.47 32.324,31.469 32.26,8.27 20.035,36.306 37.339,19.861 7.726,31.511 32.261,31.453 2.609,19.893 Z"
     style="fill:none;fill-opacity:0.75;fill-rule:evenodd;stroke:#000000;stroke-width:0.213432;stroke-linecap:butt;stroke-linejoin:miter;stroke-miterlimit:4;stroke-dashoffset:0;stroke-opacity:0.347418;marker:none;marker-start:none;marker-mid:none;marker-end:none"
     id="path1" />
  <path
     d="m 104.595,4260.99 -19.299,-46.383 0.098,38.429 19.15,-46.444 -27.104,27.242 46.382,-19.299 -38.428,0.097 46.443,19.151 -27.242,-27.105 19.3,46.383 -0.098,-38.429 -19.15,46.444 27.104,-27.242 -46.383,19.299 38.429,-0.097 -46.444,-19.151 z"
     style="fill:none;fill-opacity:0.75;fill-rule:evenodd;stroke:#000000;stroke-width:0.343796;stroke-linecap:butt;stroke-linejoin:miter;stroke-miterlimit:4;stroke-dashoffset:0;stroke-opacity:0.347418;marker:none;marker-start:none;marker-mid:none;marker-end:none;filter:url(#a)"
     transform="matrix(0.63988,0,0,0.60508,-47.02,-2542.645)"
     id="path2" />
  <path
     d="m 19.093,19.725 c -0.112,0.046 -0.122,-0.116 -0.082,-0.172 0.107,-0.146 0.34,-0.092 0.447,0.022 0.19,0.202 0.094,0.51 -0.125,0.656 -0.318,0.213 -0.76,0.084 -0.963,-0.209 -0.268,-0.388 -0.086,-0.905 0.325,-1.135 0.515,-0.288 1.185,-0.077 1.476,0.395 0.35,0.57 0.08,1.3 -0.524,1.61 -0.709,0.365 -1.608,0.072 -1.985,-0.579 -0.435,-0.749 -0.075,-1.693 0.72,-2.083 0.902,-0.443 2.032,-0.067 2.494,0.762 0.518,0.928 0.07,2.085 -0.917,2.555 -1.094,0.52 -2.453,0.062 -3,-0.945 -0.602,-1.106 -0.064,-2.477 1.113,-3.026 1.285,-0.598 2.873,-0.057 3.506,1.127 0.685,1.284 0.059,2.869 -1.31,3.496 -1.475,0.677 -3.293,0.052 -4.01,-1.309 -0.768,-1.46 -0.053,-3.258 1.505,-3.964 1.666,-0.754 3.712,-0.048 4.513,1.49 0.853,1.638 0.05,3.648 -1.7,4.432 -1.855,0.832 -4.13,0.044 -5.015,-1.671 -0.936,-1.815 -0.044,-4.037 1.894,-4.9 2.046,-0.909 4.549,-0.038 5.517,1.853 1.02,1.991 0.04,4.425 -2.088,5.365 -2.235,0.988 -4.966,0.035 -6.018,-2.032 -1.103,-2.167 -0.035,-4.814 2.282,-5.832 2.424,-1.065 5.383,-0.03 6.519,2.213 1.187,2.343 0.03,5.201 -2.476,6.297 -2.613,1.143 -5.8,0.026 -7.019,-2.393 -1.27,-2.519 -0.025,-5.588 2.67,-6.762 2.801,-1.22 6.215,-0.02 7.518,2.573 1.353,2.695 0.02,5.975 -2.863,7.226 -2.99,1.298 -6.63,0.017 -8.017,-2.752 -1.437,-2.87 -0.016,-6.362 3.056,-7.69 3.179,-1.375 7.046,-0.013 8.516,2.932 1.52,3.045 0.01,6.748 -3.25,8.154 -3.366,1.452 -7.46,0.008 -9.013,-3.112 -1.603,-3.22 -0.007,-7.134 3.441,-8.617 3.556,-1.529 7.876,-0.004 9.512,3.291 1.686,3.395 0.002,7.52 -3.634,9.08 -3.743,1.606 -8.29,0 -10.01,-3.47 -1.768,-3.57 0.004,-7.905 3.827,-9.542 3.931,-1.684 8.705,0.004 10.507,3.649 1.851,3.744 -0.007,8.29 -4.02,10.004 -4.118,1.76 -9.117,-0.01 -11.002,-3.828 -1.934,-3.919 0.012,-8.674 4.21,-10.466 4.307,-1.838 9.533,0.013 11.5,4.007 2.017,4.092 -0.017,9.058 -4.403,10.927 -4.494,1.915 -9.945,-0.018 -11.995,-4.185 -2.1,-4.268 0.02,-9.443 4.595,-11.39 4.68,-1.99 10.358,0.023 12.491,4.365 2.182,4.441 -0.026,9.827 -4.787,11.85 -4.868,2.068 -10.77,-0.027 -12.987,-4.543 -2.265,-4.615 0.03,-10.21 4.98,-12.31 5.055,-2.145 11.182,0.03 13.481,4.72 2.348,4.79 -0.035,10.595 -5.17,12.772 -5.243,2.222 -11.596,-0.036 -13.978,-4.9 -2.43,-4.963 0.04,-10.977 5.363,-13.23 5.429,-2.3 12.007,0.039 14.471,5.076 2.513,5.138 -0.044,11.361 -5.553,13.692 -5.616,2.375 -12.42,-0.044 -14.966,-5.256 -2.596,-5.31 0.049,-11.743 5.745,-14.15 5.802,-2.453 12.83,0.047 15.46,5.432 2.677,5.485 -0.054,12.127 -5.936,14.611 -5.99,2.53 -13.243,-0.052 -15.955,-5.61 -2.76,-5.659 0.059,-12.51 6.128,-15.07 6.176,-2.606 13.654,0.056 16.448,5.788 2.842,5.831 -0.063,12.892 -6.319,15.53 C 17.871,33.226 10.168,30.482 7.292,24.577 4.367,18.572 7.359,11.302 13.802,8.588 20.35,5.83 28.277,8.654 31.236,14.732 34.243,20.911 31.164,28.389 24.536,31.18 17.8,34.015 9.649,31.11 6.608,24.858 3.518,18.506 6.684,10.819 13.499,7.952 c 6.922,-2.912 15.297,0.074 18.42,6.5 3.172,6.524 -0.08,14.42 -7.081,17.364 a 14.282,13.285 0 0 1 -6.183,1.171"
     style="fill:none;fill-opacity:0.75;fill-rule:evenodd;stroke:#000000;stroke-width:0.120487;stroke-linecap:butt;stroke-linejoin:miter;stroke-miterlimit:4;stroke-dasharray:0.120487, 1.44584;stroke-dashoffset:0;stroke-opacity:1;marker:none;marker-start:none;marker-mid:none;marker-end:none"
     id="path3" />
  <path
     d="M 20.057,36.251 7.54,8.348 7.603,31.466 20.025,3.526 2.443,19.915 32.529,8.305 7.602,8.363 37.728,19.884 20.058,3.578 32.576,31.481 32.513,8.363 20.091,36.303 37.672,19.915 7.585,31.525 32.513,31.466 2.386,19.946 Z"
     style="fill:none;fill-opacity:0.75;fill-rule:evenodd;stroke:#000000;stroke-width:0.214763;stroke-linecap:butt;stroke-linejoin:miter;stroke-miterlimit:4;stroke-dashoffset:0;stroke-opacity:1;marker:none;marker-start:none;marker-mid:none;marker-end:none"
     id="path4" />
  <ellipse
     cx="7.566"
     cy="8.3730001"
     rx="2.063"
     ry="1.952"
     style="fill:#cc0100;fill-opacity:1;stroke:#2a4200;stroke-width:0.156137;stroke-opacity:1"
     id="ellipse4" />
  <ellipse
     cx="2.7149999"
     cy="20.028"
     rx="2.063"
     ry="1.952"
     style="fill:#cc0100;fill-opacity:1;stroke:#2a4200;stroke-width:0.156137;stroke-opacity:1"
     id="ellipse5" />
  <ellipse
     cx="20.113001"
     cy="3.076"
     rx="2.063"
     ry="1.952"
     style="fill:#cc0100;fill-opacity:1;stroke:#2a4200;stroke-width:0.156137;stroke-opacity:1"
     id="ellipse6" />
  <ellipse
     cx="32.269001"
     cy="8.3179998"
     rx="2.063"
     ry="1.952"
     style="fill:#cc0100;fill-opacity:1;stroke:#2a4200;stroke-width:0.156137;stroke-opacity:1"
     id="ellipse7" />
  <ellipse
     cx="37.400002"
     cy="20.028"
     rx="2.063"
     ry="1.952"
     style="fill:#cc0100;fill-opacity:1;stroke:#2a4200;stroke-width:0.156137;stroke-opacity:1"
     id="ellipse8" />
  <ellipse
     cx="20.225"
     cy="36.645"
     rx="2.063"
     ry="1.952"
     style="fill:#cc0100;fill-opacity:1;stroke:#2a4200;stroke-width:0.156137;stroke-opacity:1"
     id="ellipse9" />
  <ellipse
     cx="7.756"
     cy="31.627001"
     rx="2.063"
     ry="1.952"
     style="fill:#cc0100;fill-opacity:1;stroke:#2a4200;stroke-width:0.156137;stroke-opacity:1"
     id="ellipse10" />
  <ellipse
     cx="32.158001"
     cy="31.514999"
     rx="2.063"
     ry="1.952"
     style="fill:#cc0100;fill-opacity:1;stroke:#2a4200;stroke-width:0.156137;stroke-opacity:1"
     id="ellipse11" />
</svg>
