<?xml version="1.0" encoding="UTF-8" standalone="no"?>
<!-- Created with Inkscape (http://www.inkscape.org/) -->
<svg
   xmlns:dc="http://purl.org/dc/elements/1.1/"
   xmlns:cc="http://creativecommons.org/ns#"
   xmlns:rdf="http://www.w3.org/1999/02/22-rdf-syntax-ns#"
   xmlns:svg="http://www.w3.org/2000/svg"
   xmlns="http://www.w3.org/2000/svg"
   xmlns:sodipodi="http://sodipodi.sourceforge.net/DTD/sodipodi-0.dtd"
   xmlns:inkscape="http://www.inkscape.org/namespaces/inkscape"
   width="744.09448819"
   height="1052.3622047"
   id="svg2"
   sodipodi:version="0.32"
   inkscape:version="0.46"
   sodipodi:docname="socnetv-test.svg"
   inkscape:output_extension="org.inkscape.output.svg.inkscape">
  <defs
     id="defs4">
    <marker
       inkscape:stockid="Arrow1Sstart"
       orient="auto"
       refY="0.0"
       refX="0.0"
       id="Arrow1Sstart"
       style="overflow:visible">
      <path
         id="path4682"
         d="M 0.0,0.0 L 5.0,-5.0 L -12.5,0.0 L 5.0,5.0 L 0.0,0.0 z "
         style="fill-rule:evenodd;stroke:#000000;stroke-width:1.0pt;marker-start:none"
         transform="scale(0.2) translate(6,0)" />
    </marker>
    <marker
       inkscape:stockid="Arrow1Lstart"
       orient="auto"
       refY="0.0"
       refX="0.0"
       id="Arrow1Lstart"
       style="overflow:visible">
      <path
         id="path4670"
         d="M 0.0,0.0 L 5.0,-5.0 L -12.5,0.0 L 5.0,5.0 L 0.0,0.0 z "
         style="fill-rule:evenodd;stroke:#000000;stroke-width:1.0pt;marker-start:none"
         transform="scale(0.8) translate(12.5,0)" />
    </marker>
    <marker
       inkscape:stockid="Arrow1Lend"
       orient="auto"
       refY="0.0"
       refX="0.0"
       id="Arrow1Lend"
       style="overflow:visible;">
      <path
         id="path4673"
         d="M 0.0,0.0 L 5.0,-5.0 L -12.5,0.0 L 5.0,5.0 L 0.0,0.0 z "
         style="fill-rule:evenodd;stroke:#000000;stroke-width:1.0pt;marker-start:none;"
         transform="scale(0.8) rotate(180) translate(12.5,0)" />
    </marker>
    <marker
       inkscape:stockid="Arrow1Mend"
       orient="auto"
       refY="0.0"
       refX="0.0"
       id="Arrow1Mend"
       style="overflow:visible;">
      <path
         id="path4679"
         d="M 0.0,0.0 L 5.0,-5.0 L -12.5,0.0 L 5.0,5.0 L 0.0,0.0 z "
         style="fill-rule:evenodd;stroke:#000000;stroke-width:1.0pt;marker-start:none;"
         transform="scale(0.4) rotate(180) translate(10,0)" />
    </marker>
    <inkscape:perspective
       sodipodi:type="inkscape:persp3d"
       inkscape:vp_x="0 : 526.18109 : 1"
       inkscape:vp_y="0 : 1000 : 0"
       inkscape:vp_z="744.09448 : 526.18109 : 1"
       inkscape:persp3d-origin="372.04724 : 350.78739 : 1"
       id="perspective10" />
  </defs>
  <sodipodi:namedview
     id="base"
     pagecolor="#ffffff"
     bordercolor="#666666"
     borderopacity="1.0"
     gridtolerance="10000"
     guidetolerance="10"
     objecttolerance="10"
     inkscape:pageopacity="0.0"
     inkscape:pageshadow="2"
     inkscape:zoom="0.35"
     inkscape:cx="294.39412"
     inkscape:cy="1060.8457"
     inkscape:document-units="px"
     inkscape:current-layer="layer1"
     showgrid="false"
     inkscape:window-width="843"
     inkscape:window-height="736"
     inkscape:window-x="325"
     inkscape:window-y="0" />
  <metadata
     id="metadata7">
    <rdf:RDF>
      <cc:Work
         rdf:about="">
        <dc:format>image/svg+xml</dc:format>
        <dc:type
           rdf:resource="http://purl.org/dc/dcmitype/StillImage" />
      </cc:Work>
    </rdf:RDF>
  </metadata>
  <g
     inkscape:label="Layer 1"
     inkscape:groupmode="layer"
     id="layer1"
     style="display:inline">
    <path
       style="fill:none;fill-rule:evenodd;stroke:#000000;stroke-width:1.76930702px;stroke-linecap:round;stroke-linejoin:miter;marker-start:url(#Arrow1Mend);marker-end:url(#Arrow1Lend);stroke-opacity:1;display:inline"
       d="M 271.79911,505.45696 L 204.52626,377.98029"
       id="path4649"
       inkscape:connector-type="polyline"
       inkscape:export-filename="/home/dimitris/socnetv.png"
       inkscape:export-xdpi="9.6800003"
       inkscape:export-ydpi="9.6800003" />
    <path
       style="fill:none;fill-rule:evenodd;stroke:#000000;stroke-width:1.90308571px;stroke-linecap:butt;stroke-linejoin:miter;marker-start:url(#Arrow1Lstart);marker-end:url(#Arrow1Sstart);stroke-opacity:1"
       d="M 194.64925,485.25238 L 252.63582,522.36046"
       id="path4651"
       inkscape:connector-type="polyline"
       inkscape:export-filename="/home/dimitris/socnetv.png"
       inkscape:export-xdpi="9.6800003"
       inkscape:export-ydpi="9.6800003" />
    <path
       style="fill:none;fill-rule:evenodd;stroke:#000000;stroke-width:2.00787163px;stroke-linecap:round;stroke-linejoin:miter;marker-start:url(#Arrow1Mend);marker-end:url(#Arrow1Lend);stroke-opacity:1;display:inline"
       d="M 559.29278,559.85735 L 340.94782,560.10467"
       id="path7034"
       inkscape:connector-type="polyline"
       inkscape:export-filename="/home/dimitris/socnetv.png"
       inkscape:export-xdpi="9.6800003"
       inkscape:export-ydpi="9.6800003" />
    <path
       sodipodi:type="arc"
       style="fill:#a05052;fill-opacity:1;fill-rule:evenodd;stroke:#000000;stroke-opacity:1"
       id="path7044"
       sodipodi:cx="178.57143"
       sodipodi:cy="476.64789"
       sodipodi:rx="30"
       sodipodi:ry="30"
       d="M 208.57143,476.64789 A 30,30 0 1 1 148.57143,476.64789 A 30,30 0 1 1 208.57143,476.64789 z"
       transform="matrix(1.0437043,0,0,1.1890864,7.9099484,-225.84191)"
       inkscape:export-filename="/home/dimitris/socnetv.png"
       inkscape:export-xdpi="9.6800003"
       inkscape:export-ydpi="9.6800003" />
    <path
       style="fill:#006000;fill-opacity:0;fill-rule:evenodd;stroke:#0f0000;stroke-width:2.85714293;stroke-linecap:round;stroke-opacity:1"
       d="M 405.85715,535.93325 C 384.97337,527.87299 376.26626,522.18245 363.31012,508.12668 C 335.50192,477.95831 326.99815,438.25814 337.75812,388.83548 L 340.71275,375.26405 L 372.18963,375.26405 C 403.44997,375.26405 403.65435,375.30825 401.90315,381.69262 C 394.44243,408.89222 398.2186,431.50665 413.1302,448.92748 C 426.02452,463.99168 438.59035,469.54977 459.7532,469.54977 C 523.57083,469.54977 584.50409,396.91514 579.48883,326.82034 C 575.33537,268.77185 528.71512,233.15742 472.28369,244.92371 C 421.75777,255.45865 374.98972,294.67368 348.6474,348.59291 L 337.01297,372.40691 L 305.89429,372.40691 L 274.77543,372.40691 L 279.04389,359.87979 C 302.81877,290.10419 366.30012,219.58531 432.26069,189.67737 C 484.66706,165.91522 543.94075,166.32131 582.57046,190.70717 C 631.934,221.86902 655.28049,287.02654 641.31246,354.65002 C 631.49846,402.16259 610.24803,439.88694 571.75623,478.12802 C 543.49009,506.21002 524.59775,519.20019 493.79655,531.73225 C 470.04017,541.39799 425.52566,543.52448 405.85715,535.93325 z"
       id="path2412"
       inkscape:export-filename="/home/dimitris/socnetv.png"
       inkscape:export-xdpi="9.6800003"
       inkscape:export-ydpi="9.6800003" />
    <path
       style="fill:#ffd800;fill-opacity:1;fill-rule:evenodd;stroke:#0f0000;stroke-width:3.49116921;stroke-linecap:round;stroke-opacity:1"
       d="M 161.44105,363.13355 C 150.74057,352.94723 149.0313,349.02876 149.0313,334.68486 C 149.0313,320.17706 150.63336,316.61132 161.55858,306.8025 C 181.06758,289.28704 204.22168,292.88024 217.21549,315.43979 C 232.5979,342.14655 212.89273,374.94704 181.46583,374.94704 C 177.27745,374.94704 168.26627,369.63096 161.44098,363.13355 L 161.44105,363.13355 z"
       id="path3236"
       inkscape:export-filename="/home/dimitris/socnetv.png"
       inkscape:export-xdpi="9.6800003"
       inkscape:export-ydpi="9.6800003" />
    <path
       style="fill:#a05252;fill-opacity:1;fill-rule:evenodd;stroke:#0f0000;stroke-width:2.84640861000000012;stroke-linecap:round;stroke-opacity:1"
       d="M 467.24233,390.00061 C 466.22095,386.80661 466.9346,382.34049 468.82835,380.07593 C 471.79834,376.52427 468.39599,375.95261 444.06366,375.91515 C 428.54938,375.8913 414.23687,374.85168 412.2581,373.60499 C 409.55586,371.90245 410.82306,368.09779 417.34845,358.3207 C 432.17122,336.11153 454.87865,322.08155 476.00143,322.08155 C 487.30036,322.08155 490.73895,323.52296 499.00113,331.7227 C 506.97528,339.63656 508.7157,343.50464 508.7157,353.31278 C 508.7157,360.18697 506.1744,369.74916 502.73193,375.8279 C 492.68175,393.57456 471.13695,402.1785 467.24241,390.00064 L 467.24233,390.00061 z"
       id="path3288"
       inkscape:export-filename="/home/dimitris/socnetv.png"
       inkscape:export-xdpi="9.6800003"
       inkscape:export-ydpi="9.6800003" />
    <path
       sodipodi:type="arc"
       style="fill:#a05052;fill-opacity:1;fill-rule:evenodd;stroke:#000000;stroke-opacity:1"
       id="path2429"
       sodipodi:cx="178.57143"
       sodipodi:cy="476.64789"
       sodipodi:rx="30"
       sodipodi:ry="30"
       d="M 208.57143,476.64789 A 30,30 0 1 1 148.57143,476.64789 A 30,30 0 1 1 208.57143,476.64789 z"
       transform="matrix(1.0437043,0,0,1.1890864,438.33302,-3.3462671)"
       inkscape:export-filename="/home/dimitris/socnetv.png"
       inkscape:export-xdpi="9.6800003"
       inkscape:export-ydpi="9.6800003" />
    <path
       style="fill:#ffd800;fill-opacity:1;fill-rule:evenodd;stroke:#0f0000;stroke-width:3.49116921;stroke-linecap:round;stroke-opacity:1"
       d="M 591.86412,585.62919 C 581.16364,575.44287 579.45437,571.5244 579.45437,557.1805 C 579.45437,542.6727 581.05643,539.10696 591.98165,529.29814 C 611.49065,511.78268 634.64475,515.37588 647.63856,537.93543 C 663.02097,564.64219 643.3158,597.44268 611.8889,597.44268 C 607.70052,597.44268 598.68934,592.1266 591.86405,585.62919 L 591.86412,585.62919 z"
       id="path2431"
       inkscape:export-filename="/home/dimitris/socnetv.png"
       inkscape:export-xdpi="9.6800003"
       inkscape:export-ydpi="9.6800003" />
    <path
       sodipodi:type="arc"
       style="fill:#a05052;fill-opacity:1;fill-rule:evenodd;stroke:#000000;stroke-opacity:1"
       id="path2433"
       sodipodi:cx="178.57143"
       sodipodi:cy="476.64789"
       sodipodi:rx="30"
       sodipodi:ry="30"
       d="M 208.57143,476.64789 A 30,30 0 1 1 148.57143,476.64789 A 30,30 0 1 1 208.57143,476.64789 z"
       transform="matrix(1.0437043,0,0,1.1890864,118.33302,-9.06056)"
       inkscape:export-filename="/home/dimitris/socnetv.png"
       inkscape:export-xdpi="9.6800003"
       inkscape:export-ydpi="9.6800003" />
    <path
       style="fill:#ffd800;fill-opacity:1;fill-rule:evenodd;stroke:#0f0000;stroke-width:3.49116921;stroke-linecap:round;stroke-opacity:1"
       d="M 271.86413,579.9149 C 261.16365,569.72858 259.45438,565.81011 259.45438,551.46621 C 259.45438,536.95841 261.05644,533.39267 271.98166,523.58385 C 291.49066,506.06839 314.64476,509.66159 327.63857,532.22114 C 343.02098,558.9279 323.31581,591.72839 291.88891,591.72839 C 287.70053,591.72839 278.68935,586.41231 271.86406,579.9149 L 271.86413,579.9149 z"
       id="path2435"
       inkscape:export-filename="/home/dimitris/socnetv.png"
       inkscape:export-xdpi="9.6800003"
       inkscape:export-ydpi="9.6800003" />
    <path
       sodipodi:type="arc"
       style="fill:#a05052;fill-opacity:1;fill-rule:evenodd;stroke:#000000;stroke-opacity:1"
       id="path2437"
       sodipodi:cx="178.57143"
       sodipodi:cy="476.64789"
       sodipodi:rx="30"
       sodipodi:ry="30"
       d="M 208.57143,476.64789 A 30,30 0 1 1 148.57143,476.64789 A 30,30 0 1 1 208.57143,476.64789 z"
       transform="matrix(1.0437043,0,0,1.1890864,-21.666981,-109.06056)"
       inkscape:export-filename="/home/dimitris/socnetv.png"
       inkscape:export-xdpi="9.6800003"
       inkscape:export-ydpi="9.6800003" />
    <path
       style="fill:#ffd800;fill-opacity:1;fill-rule:evenodd;stroke:#0f0000;stroke-width:3.49116921;stroke-linecap:round;stroke-opacity:1"
       d="M 131.86412,479.9149 C 121.16364,469.72858 119.45437,465.81011 119.45437,451.46621 C 119.45437,436.95841 121.05643,433.39267 131.98165,423.58385 C 151.49065,406.06839 174.64475,409.66159 187.63856,432.22114 C 203.02097,458.9279 183.3158,491.72839 151.8889,491.72839 C 147.70052,491.72839 138.68934,486.41231 131.86405,479.9149 L 131.86412,479.9149 z"
       id="path2439"
       inkscape:export-filename="/home/dimitris/socnetv.png"
       inkscape:export-xdpi="9.6800003"
       inkscape:export-ydpi="9.6800003" />
    <path
       style="fill:#a05252;fill-opacity:1;fill-rule:evenodd;stroke:#0f0000;stroke-width:2.98043536999999992;stroke-linecap:round;stroke-opacity:1;display:inline"
       d="M 409.86954,541.72682 C 382.12339,535.06563 355.22276,512.61401 341.40684,484.58695 C 331.76696,465.03134 327.94557,436.34075 331.23458,408.21425 C 334.95179,376.42662 332.8715,378.2117 366.19722,378.2117 L 395.41753,378.2117 L 394.07398,401.24746 C 392.57006,427.0314 395.98457,438.54638 410.04034,455.09226 C 440.01463,490.37668 503.39056,479.70838 546.49808,432.12181 C 564.59607,412.14342 578.30998,385.48985 583.76189,359.69822 C 599.95301,283.10169 544.01332,223.34607 470.32948,238.52812 C 419.8539,248.92831 369.7068,290.76709 340.84723,346.55819 L 329.09448,369.27849 L 299.9257,369.29119 C 283.88288,369.29823 270.75694,368.19477 270.75694,366.83911 C 270.75694,362.47384 283.95705,332.71076 294.02605,314.37294 C 318.63723,269.55083 372.88136,215.99886 416.82678,193.13932 C 453.45496,174.08608 474.39825,168.85367 513.0821,169.09139 C 541.33529,169.26496 550.56289,170.49797 564.69465,175.98781 C 600.91904,190.06018 629.40164,222.17102 642.56057,263.77249 C 651.20612,291.10503 651.50385,337.84978 643.21395,366.33471 C 630.41032,410.32878 610.85308,442.56617 575.05916,478.67783 C 528.29312,525.85892 487.92974,545.02958 437.13415,544.18544 C 427.07479,544.01828 414.80578,542.91191 409.86954,541.72682 z"
       id="path3286"
       inkscape:export-filename="/home/dimitris/socnetv.png"
       inkscape:export-xdpi="9.6800003"
       inkscape:export-ydpi="9.6800003" />
  </g>
</svg>
