<?xml version="1.0" encoding="UTF-8" standalone="no"?>
<!-- Created with Inkscape (http://www.inkscape.org/) -->
<svg
   xmlns:dc="http://purl.org/dc/elements/1.1/"
   xmlns:cc="http://creativecommons.org/ns#"
   xmlns:rdf="http://www.w3.org/1999/02/22-rdf-syntax-ns#"
   xmlns:svg="http://www.w3.org/2000/svg"
   xmlns="http://www.w3.org/2000/svg"
   xmlns:sodipodi="http://sodipodi.sourceforge.net/DTD/sodipodi-0.dtd"
   xmlns:inkscape="http://www.inkscape.org/namespaces/inkscape"
   width="744.09448819"
   height="1052.3622047"
   id="svg2"
   sodipodi:version="0.32"
   inkscape:version="0.46"
   sodipodi:docname="socnetv-yellow.svg"
   inkscape:output_extension="org.inkscape.output.svg.inkscape">
  <defs
     id="defs4">
    <marker
       inkscape:stockid="Arrow1Sstart"
       orient="auto"
       refY="0.0"
       refX="0.0"
       id="Arrow1Sstart"
       style="overflow:visible">
      <path
         id="path4682"
         d="M 0.0,0.0 L 5.0,-5.0 L -12.5,0.0 L 5.0,5.0 L 0.0,0.0 z "
         style="fill-rule:evenodd;stroke:#000000;stroke-width:1.0pt;marker-start:none"
         transform="scale(0.2) translate(6,0)" />
    </marker>
    <marker
       inkscape:stockid="Arrow1Lstart"
       orient="auto"
       refY="0.0"
       refX="0.0"
       id="Arrow1Lstart"
       style="overflow:visible">
      <path
         id="path4670"
         d="M 0.0,0.0 L 5.0,-5.0 L -12.5,0.0 L 5.0,5.0 L 0.0,0.0 z "
         style="fill-rule:evenodd;stroke:#000000;stroke-width:1.0pt;marker-start:none"
         transform="scale(0.8) translate(12.5,0)" />
    </marker>
    <marker
       inkscape:stockid="Arrow1Lend"
       orient="auto"
       refY="0.0"
       refX="0.0"
       id="Arrow1Lend"
       style="overflow:visible;">
      <path
         id="path4673"
         d="M 0.0,0.0 L 5.0,-5.0 L -12.5,0.0 L 5.0,5.0 L 0.0,0.0 z "
         style="fill-rule:evenodd;stroke:#000000;stroke-width:1.0pt;marker-start:none;"
         transform="scale(0.8) rotate(180) translate(12.5,0)" />
    </marker>
    <marker
       inkscape:stockid="Arrow1Mend"
       orient="auto"
       refY="0.0"
       refX="0.0"
       id="Arrow1Mend"
       style="overflow:visible;">
      <path
         id="path4679"
         d="M 0.0,0.0 L 5.0,-5.0 L -12.5,0.0 L 5.0,5.0 L 0.0,0.0 z "
         style="fill-rule:evenodd;stroke:#000000;stroke-width:1.0pt;marker-start:none;"
         transform="scale(0.4) rotate(180) translate(10,0)" />
    </marker>
    <inkscape:perspective
       sodipodi:type="inkscape:persp3d"
       inkscape:vp_x="0 : 526.18109 : 1"
       inkscape:vp_y="0 : 1000 : 0"
       inkscape:vp_z="744.09448 : 526.18109 : 1"
       inkscape:persp3d-origin="372.04724 : 350.78739 : 1"
       id="perspective10" />
  </defs>
  <sodipodi:namedview
     id="base"
     pagecolor="#ffffff"
     bordercolor="#666666"
     borderopacity="1.0"
     gridtolerance="10000"
     guidetolerance="10"
     objecttolerance="10"
     inkscape:pageopacity="0.0"
     inkscape:pageshadow="2"
     inkscape:zoom="0.35"
     inkscape:cx="372.14286"
     inkscape:cy="571.97142"
     inkscape:document-units="px"
     inkscape:current-layer="layer1"
     showgrid="false"
     inkscape:window-width="843"
     inkscape:window-height="736"
     inkscape:window-x="427"
     inkscape:window-y="0" />
  <metadata
     id="metadata7">
    <rdf:RDF>
      <cc:Work
         rdf:about="">
        <dc:format>image/svg+xml</dc:format>
        <dc:type
           rdf:resource="http://purl.org/dc/dcmitype/StillImage" />
      </cc:Work>
    </rdf:RDF>
  </metadata>
  <g
     inkscape:label="Layer 1"
     inkscape:groupmode="layer"
     id="layer1">
    <path
       sodipodi:type="spiral"
       style="fill:#0060a0;fill-opacity:1;fill-rule:evenodd;stroke:#0f0000;stroke-width:1px;stroke-linecap:butt;stroke-linejoin:miter;stroke-opacity:1"
       id="path2383"
       sodipodi:cx="297.14285"
       sodipodi:cy="546.64789"
       sodipodi:expansion="1"
       sodipodi:revolution="3"
       sodipodi:radius="161.75063"
       sodipodi:argument="-18.227253"
       sodipodi:t0="0"
       d="M 297.14285,546.64789 C 303.73247,551.37522 294.02158,557.86286 289.28571,557.60027 C 276.45178,556.88865 271.85163,541.35697 275.23809,530.9336 C 281.29568,512.28864 304.03724,506.47888 320.71428,513.79075 C 345.18851,524.5212 352.36241,555.30332 340.95237,578.07646 C 325.74458,608.42948 286.67211,616.9895 257.85713,601.40979 C 221.59643,581.80431 211.64263,534.33638 231.42857,499.50503 C 255.39199,457.31958 311.30938,445.96798 352.14286,469.98123 C 400.26371,498.28001 413.01568,562.6783 384.76189,609.50504 C 352.14178,663.56836 279.24262,677.72246 226.42856,645.21931 C 166.41786,608.28716 150.86036,526.87368 187.61905,468.07645 C 228.85675,402.11484 318.79408,385.15299 383.57143,426.17171 C 455.48658,471.71026 473.85352,570.17843 428.57141,640.93361"
       transform="matrix(-0.7987617,-0.8168664,-0.9984809,1.1185057,1255.233,6.3576681)"
       inkscape:transform-center-x="50.575465"
       inkscape:transform-center-y="-2.0622532e-05"
       inkscape:export-filename="/home/dimitris/socnetv.png"
       inkscape:export-xdpi="9.4799995"
       inkscape:export-ydpi="9.4799995" />
    <path
       style="fill:none;fill-rule:evenodd;stroke:#000000;stroke-width:1.11402631px;stroke-linecap:round;stroke-linejoin:miter;marker-start:url(#Arrow1Mend);marker-end:url(#Arrow1Lend);stroke-opacity:1;display:inline"
       d="M 278.38594,498.79453 L 232.19965,388.1255"
       id="path4649"
       inkscape:connector-type="polyline"
       inkscape:export-filename="/home/dimitris/socnetv.png"
       inkscape:export-xdpi="9.4799995"
       inkscape:export-ydpi="9.4799995" />
    <path
       style="fill:none;fill-rule:evenodd;stroke:#000000;stroke-width:1.27801502px;stroke-linecap:butt;stroke-linejoin:miter;marker-start:url(#Arrow1Lstart);marker-end:url(#Arrow1Sstart);stroke-opacity:1"
       d="M 236.14232,480.81463 L 267.42281,510.26449"
       id="path4651"
       inkscape:connector-type="polyline"
       inkscape:export-filename="/home/dimitris/socnetv.png"
       inkscape:export-xdpi="9.4799995"
       inkscape:export-ydpi="9.4799995" />
    <path
       style="fill:none;fill-rule:evenodd;stroke:#000000;stroke-width:1px;stroke-linecap:butt;stroke-linejoin:miter;stroke-opacity:1;display:inline"
       d="M 565.71428,845.21932 L 565.71428,755.21932"
       id="path4653"
       inkscape:connector-type="polyline" />
    <path
       sodipodi:type="arc"
       style="fill:#a05052;fill-opacity:1;fill-rule:evenodd;stroke:#000000;stroke-opacity:1"
       id="path7032"
       sodipodi:cx="178.57143"
       sodipodi:cy="476.64789"
       sodipodi:rx="30"
       sodipodi:ry="30"
       d="M 208.57143,476.64789 A 30,30 0 1 1 148.57143,476.64789 A 30,30 0 1 1 208.57143,476.64789 z"
       transform="matrix(1.0437043,0,0,1.1890864,402.53114,-14.426442)"
       inkscape:export-filename="/home/dimitris/socnetv.png"
       inkscape:export-xdpi="9.4799995"
       inkscape:export-ydpi="9.4799995" />
    <path
       style="fill:none;fill-rule:evenodd;stroke:#000000;stroke-width:1.4819839px;stroke-linecap:round;stroke-linejoin:miter;marker-start:url(#Arrow1Mend);marker-end:url(#Arrow1Lend);stroke-opacity:1;display:inline"
       d="M 540.35301,556.36092 L 340.68488,556.50826"
       id="path7034"
       inkscape:connector-type="polyline"
       inkscape:export-filename="/home/dimitris/socnetv.png"
       inkscape:export-xdpi="9.4799995"
       inkscape:export-ydpi="9.4799995" />
    <path
       sodipodi:type="arc"
       style="fill:#a05052;fill-opacity:1;fill-rule:evenodd;stroke:#000000;stroke-opacity:1"
       id="path7040"
       sodipodi:cx="178.57143"
       sodipodi:cy="476.64789"
       sodipodi:rx="30"
       sodipodi:ry="30"
       d="M 208.57143,476.64789 A 30,30 0 1 1 148.57143,476.64789 A 30,30 0 1 1 208.57143,476.64789 z"
       transform="matrix(1.0437043,0,0,1.1890864,110.76709,-20.127624)"
       inkscape:export-filename="/home/dimitris/socnetv.png"
       inkscape:export-xdpi="9.4799995"
       inkscape:export-ydpi="9.4799995" />
    <path
       sodipodi:type="arc"
       style="fill:#a05052;fill-opacity:1;fill-rule:evenodd;stroke:#000000;stroke-opacity:1"
       id="path7042"
       sodipodi:cx="178.57143"
       sodipodi:cy="476.64789"
       sodipodi:rx="30"
       sodipodi:ry="30"
       d="M 208.57143,476.64789 A 30,30 0 1 1 148.57143,476.64789 A 30,30 0 1 1 208.57143,476.64789 z"
       transform="matrix(1.0437043,0,0,1.1890864,16.481377,-111.5562)"
       inkscape:export-filename="/home/dimitris/socnetv.png"
       inkscape:export-xdpi="9.4799995"
       inkscape:export-ydpi="9.4799995" />
    <path
       sodipodi:type="arc"
       style="fill:#a05052;fill-opacity:1;fill-rule:evenodd;stroke:#000000;stroke-opacity:1"
       id="path7044"
       sodipodi:cx="178.57143"
       sodipodi:cy="476.64789"
       sodipodi:rx="30"
       sodipodi:ry="30"
       d="M 208.57143,476.64789 A 30,30 0 1 1 148.57143,476.64789 A 30,30 0 1 1 208.57143,476.64789 z"
       transform="matrix(1.0437043,0,0,1.1890864,25.052806,-220.12762)"
       inkscape:export-filename="/home/dimitris/socnetv.png"
       inkscape:export-xdpi="9.4799995"
       inkscape:export-ydpi="9.4799995" />
    <path
       style="fill:#006000;fill-opacity:0;fill-rule:evenodd;stroke:#0f0000;stroke-width:2.85714293000000019;stroke-linecap:round;stroke-opacity:1"
       d="M 405.85715,535.93325 C 384.97337,527.87299 376.26626,522.18245 363.31012,508.12668 C 335.50192,477.95831 326.99815,438.25814 337.75812,388.83548 L 340.71275,375.26405 L 372.18963,375.26405 C 403.44997,375.26405 403.65435,375.30825 401.90315,381.69262 C 394.44243,408.89222 398.2186,431.50665 413.1302,448.92748 C 426.02452,463.99168 438.59035,469.54977 459.7532,469.54977 C 523.57083,469.54977 584.50409,396.91514 579.48883,326.82034 C 575.33537,268.77185 528.71512,233.15742 472.28369,244.92371 C 421.75777,255.45865 374.98972,294.67368 348.6474,348.59291 L 337.01297,372.40691 L 305.89429,372.40691 L 274.77543,372.40691 L 279.04389,359.87979 C 302.81877,290.10419 366.30012,219.58531 432.26069,189.67737 C 484.66706,165.91522 543.94075,166.32131 582.57046,190.70717 C 631.934,221.86902 655.28049,287.02654 641.31246,354.65002 C 631.49846,402.16259 610.24803,439.88694 571.75623,478.12802 C 543.49009,506.21002 524.59775,519.20019 493.79655,531.73225 C 470.04017,541.39799 425.52566,543.52448 405.85715,535.93325 z"
       id="path2412" />
    <path
       style="fill:#ffd800;fill-opacity:1;fill-rule:evenodd;stroke:#0f0000;stroke-width:2.85714293;stroke-linecap:round;stroke-opacity:1"
       d="M 278.33743,570.77491 C 270.03975,561.97688 268.71429,558.59245 268.71429,546.20348 C 268.71429,533.67294 269.9566,530.59317 278.42857,522.12119 C 293.55683,506.99291 311.51169,510.09639 321.58775,529.58131 C 333.51603,552.64822 318.23566,580.97834 293.86566,580.97834 C 290.61777,580.97834 283.63006,576.38679 278.33737,570.77491 L 278.33743,570.77491 z"
       id="path3232" />
    <path
       style="fill:#ffd800;fill-opacity:1;fill-rule:evenodd;stroke:#0f0000;stroke-width:2.85714293;stroke-linecap:round;stroke-opacity:1"
       d="M 184.05172,479.34634 C 175.75403,470.54831 174.42857,467.16388 174.42857,454.77491 C 174.42857,442.24437 175.67089,439.16459 184.14286,430.69262 C 199.27112,415.56434 217.22597,418.66782 227.30203,438.15274 C 239.23032,461.21965 223.94995,489.54977 199.57995,489.54977 C 196.33206,489.54977 189.34435,484.95822 184.05166,479.34634 L 184.05172,479.34634 z"
       id="path3234" />
    <path
       style="fill:#ffd800;fill-opacity:1;fill-rule:evenodd;stroke:#0f0000;stroke-width:2.85714293;stroke-linecap:round;stroke-opacity:1"
       d="M 192.62315,370.77491 C 184.32546,361.97688 183,358.59245 183,346.20348 C 183,333.67294 184.24232,330.59317 192.71429,322.12119 C 207.84255,306.99291 225.7974,310.09639 235.87346,329.58131 C 247.80175,352.64822 232.52137,380.97834 208.15137,380.97834 C 204.90349,380.97834 197.91577,376.38679 192.62309,370.77491 L 192.62315,370.77491 z"
       id="path3236" />
    <path
       style="fill:#ffd800;fill-opacity:1;fill-rule:evenodd;stroke:#0f0000;stroke-width:2.85714293;stroke-linecap:round;stroke-opacity:1"
       d="M 578.01815,583.75317 C 574.49229,582.33562 569.0328,576.95282 565.88589,571.79137 C 551.72926,548.57228 566.57023,518.12119 592.04315,518.12119 C 595.24083,518.12119 602.22857,522.49262 607.57143,527.83548 C 616.12826,536.39228 617.28572,539.32008 617.28572,552.40691 C 617.28572,565.49374 616.1282,568.42157 607.57143,576.97834 C 597.66757,586.88222 590.11023,588.61468 578.01806,583.75314 L 578.01815,583.75317 z"
       id="path3238" />
    <path
       style="fill:#a05052;fill-opacity:1;fill-rule:evenodd;stroke:#0f0000;stroke-width:2.85714293000000019;stroke-linecap:round;stroke-opacity:1"
       d="M 413,534.87537 C 386.50152,528.46565 360.81052,506.86168 347.61586,479.89277 C 338.40946,461.07545 334.75989,433.46805 337.901,406.40345 C 341.45106,375.81594 339.46432,377.53362 371.29149,377.53362 L 399.19786,377.53362 L 397.91472,399.69968 C 396.47843,424.51017 399.7394,435.59042 413.16312,451.51162 C 441.78957,485.46391 502.31569,475.19837 543.4848,429.4084 C 560.76897,410.18428 573.86623,384.537 579.07297,359.71911 C 594.53603,286.01442 541.11177,228.51482 470.74126,243.12368 C 422.5354,253.13122 374.64326,293.39042 347.0814,347.07517 L 335.85715,368.93768 L 308,368.94991 C 292.67857,368.95668 280.14286,367.89488 280.14286,366.5904 C 280.14286,362.38994 292.7494,333.75054 302.36563,316.10505 C 325.87012,272.97517 377.67506,221.445 419.6444,199.44851 C 454.62552,181.1146 474.62706,176.07974 511.57143,176.30848 C 538.55417,176.47551 547.36683,177.66197 560.86312,182.94454 C 595.45863,196.48562 622.66046,227.38414 635.22766,267.41497 C 643.48446,293.7156 643.7688,338.69554 635.85166,366.10505 C 623.62377,408.43814 604.94595,439.45845 570.76157,474.20674 C 526.09846,519.60654 487.55009,538.05342 439.0386,537.24117 C 429.4316,537.08031 417.71429,536.01571 413,534.87537 z"
       id="path3286" />
    <path
       style="fill:#a05052;fill-opacity:1;fill-rule:evenodd;stroke:#0f0000;stroke-width:2.85714293;stroke-linecap:round;stroke-opacity:1"
       d="M 467.24212,388.82505 C 466.22077,385.60682 466.9344,381.10682 468.82809,378.82508 C 471.798,375.24648 468.39575,374.67048 444.06412,374.63274 C 428.55029,374.60871 414.2382,373.5612 412.25949,372.30505 C 409.55732,370.5896 410.82449,366.75608 417.34969,356.90482 C 432.17203,334.52717 454.8788,320.39077 476.00097,320.39077 C 487.29957,320.39077 490.73806,321.84311 499,330.10505 C 506.97392,338.07894 508.71429,341.97637 508.71429,351.85891 C 508.71429,358.78525 506.17306,368.41997 502.73069,374.54482 C 492.6808,392.42611 471.13663,401.09531 467.2422,388.82508 L 467.24212,388.82505 z"
       id="path3288" />
  </g>
</svg>
