<?xml version="1.0" encoding="UTF-8" standalone="no"?>
<!-- Created with Inkscape (http://www.inkscape.org/) -->
<svg
   xmlns:dc="http://purl.org/dc/elements/1.1/"
   xmlns:cc="http://creativecommons.org/ns#"
   xmlns:rdf="http://www.w3.org/1999/02/22-rdf-syntax-ns#"
   xmlns:svg="http://www.w3.org/2000/svg"
   xmlns="http://www.w3.org/2000/svg"
   xmlns:sodipodi="http://sodipodi.sourceforge.net/DTD/sodipodi-0.dtd"
   xmlns:inkscape="http://www.inkscape.org/namespaces/inkscape"
   width="744.09448819"
   height="1052.3622047"
   id="svg2"
   sodipodi:version="0.32"
   inkscape:version="0.46"
   sodipodi:docname="drawing.svg"
   inkscape:output_extension="org.inkscape.output.svg.inkscape">
  <defs
     id="defs4">
    <linearGradient
       id="linearGradient9198">
      <stop
         style="stop-color:#e12b54;stop-opacity:1;"
         offset="0"
         id="stop9200" />
      <stop
         style="stop-color:#89502b;stop-opacity:0;"
         offset="1"
         id="stop9202" />
    </linearGradient>
    <linearGradient
       id="linearGradient7636">
      <stop
         style="stop-color:#39937f;stop-opacity:0.75862068;"
         offset="0"
         id="stop7638" />
      <stop
         style="stop-color:#ff0000;stop-opacity:0;"
         offset="1"
         id="stop7640" />
    </linearGradient>
    <inkscape:perspective
       sodipodi:type="inkscape:persp3d"
       inkscape:vp_x="0 : 526.18109 : 1"
       inkscape:vp_y="0 : 1000 : 0"
       inkscape:vp_z="744.09448 : 526.18109 : 1"
       inkscape:persp3d-origin="372.04724 : 350.78739 : 1"
       id="perspective10" />
    <filter
       inkscape:collect="always"
       id="filter9320">
      <feGaussianBlur
         inkscape:collect="always"
         stdDeviation="0.95806036"
         id="feGaussianBlur9322" />
    </filter>
  </defs>
  <sodipodi:namedview
     id="base"
     pagecolor="#ffffff"
     bordercolor="#666666"
     borderopacity="1.0"
     gridtolerance="10000"
     guidetolerance="10"
     objecttolerance="10"
     inkscape:pageopacity="0.0"
     inkscape:pageshadow="2"
     inkscape:zoom="1.4"
     inkscape:cx="323.60921"
     inkscape:cy="601.71477"
     inkscape:document-units="px"
     inkscape:current-layer="layer1"
     showgrid="false"
     inkscape:window-width="1280"
     inkscape:window-height="743"
     inkscape:window-x="-5"
     inkscape:window-y="-3" />
  <metadata
     id="metadata7">
    <rdf:RDF>
      <cc:Work
         rdf:about="">
        <dc:format>image/svg+xml</dc:format>
        <dc:type
           rdf:resource="http://purl.org/dc/dcmitype/StillImage" />
      </cc:Work>
    </rdf:RDF>
  </metadata>
  <g
     inkscape:label="Layer 1"
     inkscape:groupmode="layer"
     id="layer1">
    <path
       transform="matrix(4.08907,0,0,3.8661989,-135.55453,-15909.697)"
       d="M 104.59527,4260.9893 L 85.296407,4214.607 L 85.393576,4253.0357 L 104.54444,4206.5921 L 77.439974,4233.834 L 123.82225,4214.5351 L 85.393575,4214.6323 L 131.83715,4233.7832 L 104.59527,4206.6787 L 123.89413,4253.061 L 123.79696,4214.6323 L 104.6461,4261.0759 L 131.75056,4233.834 L 85.368289,4253.1328 L 123.79696,4253.0357 L 77.353386,4233.8848 L 104.59527,4260.9893 z"
       inkscape:randomized="0"
       inkscape:rounded="0"
       inkscape:flatsided="false"
       sodipodi:arg2="-2.3580603"
       sodipodi:arg1="1.5707963"
       sodipodi:r2="27.24193"
       sodipodi:r1="27.155294"
       sodipodi:cy="4233.834"
       sodipodi:cx="104.59527"
       sodipodi:sides="8"
       id="shapes-f14.svgpath3347"
       style="opacity:1;fill:none;fill-opacity:0.75;fill-rule:evenodd;stroke:#000000;stroke-width:0.34379637;stroke-linecap:butt;stroke-linejoin:miter;marker:none;marker-start:none;marker-mid:none;marker-end:none;stroke-miterlimit:4;stroke-dashoffset:0;stroke-opacity:0.34741785"
       sodipodi:type="star"
       inkscape:export-filename="/media/oxy/socnetv/7-big.png"
       inkscape:export-xdpi="46.16"
       inkscape:export-ydpi="46.16" />
    <text
       xml:space="preserve"
       style="font-size:40px;font-style:normal;font-weight:normal;fill:#000000;fill-opacity:1;stroke:none;stroke-width:1px;stroke-linecap:butt;stroke-linejoin:miter;stroke-opacity:1;font-family:Bitstream Vera Sans"
       x="96.428574"
       y="641.64789"
       id="text7742"><tspan
         sodipodi:role="line"
         id="tspan7744"
         x="96.428574"
         y="641.64789" /></text>
    <path
       transform="matrix(4.0981915,0,0,3.8753178,-137.10294,-15952.784)"
       d="M 104.59527,4260.9893 L 85.296407,4214.607 L 85.393576,4253.0357 L 104.54444,4206.5921 L 77.439974,4233.834 L 123.82225,4214.5351 L 85.393575,4214.6323 L 131.83715,4233.7832 L 104.59527,4206.6787 L 123.89413,4253.061 L 123.79696,4214.6323 L 104.6461,4261.0759 L 131.75056,4233.834 L 85.368289,4253.1328 L 123.79696,4253.0357 L 77.353386,4233.8848 L 104.59527,4260.9893 z"
       inkscape:randomized="0"
       inkscape:rounded="0"
       inkscape:flatsided="false"
       sodipodi:arg2="-2.3580603"
       sodipodi:arg1="1.5707963"
       sodipodi:r2="27.24193"
       sodipodi:r1="27.155294"
       sodipodi:cy="4233.834"
       sodipodi:cx="104.59527"
       sodipodi:sides="8"
       id="path9324"
       style="opacity:1;fill:none;fill-opacity:0.75;fill-rule:evenodd;stroke:#000000;stroke-width:0.34379637;stroke-linecap:butt;stroke-linejoin:miter;marker:none;marker-start:none;marker-mid:none;marker-end:none;stroke-miterlimit:4;stroke-dashoffset:0;stroke-opacity:0.34741785;filter:url(#filter9320)"
       sodipodi:type="star"
       inkscape:export-filename="/media/oxy/socnetv/7-big.png"
       inkscape:export-xdpi="46.16"
       inkscape:export-ydpi="46.16" />
    <path
       transform="matrix(-0.3426896,1.1896439,-1.2789225,-0.3187657,8658.2246,2413.3868)"
       d="M 103.19778,6518.4199 C 103.56743,6518.8789 102.7672,6519.1444 102.43887,6519.0311 C 101.56828,6518.7306 101.5504,6517.5714 101.98741,6516.9169 C 102.7632,6515.7552 104.43467,6515.7913 105.43932,6516.6148 C 106.90593,6517.8169 106.8107,6520.0574 105.59483,6521.3965 C 103.98074,6523.1742 101.15624,6523.017 99.488829,6521.4068 C 97.397317,6519.387 97.6176,6515.9731 99.622806,6513.9807 C 102.04484,6511.5741 106.05034,6511.858 108.36559,6514.2582 C 111.08773,6517.0802 110.73997,6521.6782 107.945,6524.3148 C 104.72465,6527.3528 99.533993,6526.9411 96.577073,6523.7516 C 93.223292,6520.1342 93.698997,6514.3509 97.282488,6511.0746 C 101.29609,6507.405 107.6718,6507.9447 111.26676,6511.9219 C 115.25195,6516.3308 114.64831,6523.2986 110.2778,6527.2116 C 105.47429,6531.5123 97.914763,6530.8447 93.684265,6526.0812 C 89.068291,6520.8837 89.799727,6512.7329 94.955783,6508.1854 C 100.54673,6503.2543 109.28852,6504.0495 114.15266,6509.5978 C 119.39867,6515.5817 118.53961,6524.9141 112.59938,6530.0944 C 106.22298,6535.6552 96.300505,6534.7324 90.804257,6528.4005 C 84.928968,6521.632 85.915472,6511.1198 92.638616,6505.308 C 99.79884,6499.1184 110.90045,6500.1685 117.02753,6507.2827 C 123.53135,6514.8343 122.41758,6526.5249 114.91267,6532.967 C 106.97003,6539.7848 94.690744,6538.6074 87.933931,6530.712 C 80.802299,6522.3787 82.043176,6509.5111 90.328801,6502.4398 C 99.052618,6494.9945 112.5082,6496.2989 119.89378,6504.9745 C 127.65254,6514.0885 126.28472,6528.1317 117.21935,6535.8313 C 107.71545,6543.9034 93.084873,6542.4722 85.071393,6533.0173 C 76.686124,6523.1237 78.180752,6507.9061 88.024964,6499.579 C 98.307954,6490.8807 114.11232,6492.4386 122.75292,6502.672 C 131.76409,6513.3442 130.14279,6529.735 119.52057,6538.6889 C 108.4594,6548.0128 91.48238,6546.3282 82.215369,6535.3173 C 72.578875,6523.8673 74.326708,6506.3044 85.726168,6496.7244 C 97.564697,6486.7755 115.71329,6488.5865 125.60605,6500.3743 C 135.86733,6512.6012 133.99308,6531.3352 121.81712,6541.5406 C 109.202,6552.1141 89.882854,6550.1767 79.364943,6537.6127 C 68.47938,6524.6096 70.479935,6504.7055 83.431726,6493.8753 C 96.822706,6482.6778 117.31146,6484.7414 128.45395,6498.0809 C 139.96331,6511.8595 137.83655,6532.9327 124.10958,6544.3873 C 109.94341,6556.2084 88.285966,6554.0186 76.519423,6539.9043 C 64.38673,6525.3507 66.639579,6503.1093 81.141116,6491.0309 C 96.08186,6478.5867 118.90713,6480.9026 131.29722,6495.7912 C 144.05281,6511.119 141.67396,6534.5278 126.39844,6547.2295 C 110.68372,6560.2964 86.691448,6557.8546 73.67827,6542.1923 C 60.300202,6526.0908 62.80496,6501.5153 78.853929,6488.1908 C 95.342052,6474.5016 120.50055,6477.0693 134.13636,6493.5048 C 148.13651,6510.3794 145.50593,6536.1207 128.68404,6550.0677 C 111.42304,6564.3787 85.099079,6561.6853 70.84105,6544.4771 C 56.219211,6526.8299 58.97553,6499.9234 76.569833,6485.3545 C 94.603195,6470.4219 122.09191,6473.2411 136.97175,6491.2214 C 152.21492,6509.6408 149.33294,6537.7116 130.9667,6552.9022 C 112.16146,6568.4559 83.508675,6565.5111 68.007408,6546.7591 C 52.14327,6527.5681 55.150831,6498.3335 74.288554,6482.5217 C 93.865212,6466.3472 123.68139,6469.4175 139.80372,6488.9408 C 156.28849,6508.903 153.15542,6539.3006 133.24666,6555.7334 C 112.89903,6572.5283 81.92008,6569.3325 65.177047,6549.0384 C 48.071973,6528.3054 51.330483,6496.7453 72.009864,6479.6921 C 93.128037,6462.277 125.26914,6465.5982 142.63254,6486.6627 C 160.3576,6508.166 156.97372,6540.888 135.52413,6558.5614 C 113.63582,6576.5964 80.33316,6573.1498 62.349716,6551.3153 C 44.004969,6529.042 47.514158,6495.1588 69.733568,6476.8655 C 92.391615,6458.211 126.85526,6461.7828 145.45844,6484.387 C 164.42257,6507.4298 160.78814,6542.4737 137.79929,6561.3866 C 114.37188,6580.6603 78.747799,6576.9633 59.525199,6553.5899 C 39.941961,6529.7779 43.701575,6493.5738 67.459498,6474.0416 C 91.655894,6454.1489 128.43988,6457.9711 148.28162,6482.1135 C 168.48368,6506.6942 164.59894,6544.058 140.0723,6564.2092 C 115.10727,6584.7205 77.163896,6580.7733 56.703309,6555.8624 C 35.882685,6530.5132 39.892491,6491.9903 65.187509,6471.2204 C 90.920832,6450.0906 130.02309,6454.1629 151.10226,6479.842 C 172.54118,6505.9593 168.40636,6545.6408 142.3433,6567.0292 C 115.84202,6588.7772 75.581361,6584.5799 53.883881,6558.1329 C 31.826913,6531.2478 36.086689,6490.4081 62.917473,6468.4015 C 90.18639,6446.0356 131.60497,6450.3579 153.92051,6477.5724 C 176.59528,6505.225 172.21059,6547.2224 144.6124,6569.8469 C 116.57616,6592.8304 74.000117,6588.3833 51.06677,6560.4015 C 27.774442,6531.9818 32.283981,6488.8271 60.649276,6465.585 C 89.452532,6441.984 133.1856,6446.5559 156.73651,6475.3046 C 163.24405,6483.2484 167.9265,6492.641 170.36165,6502.6167"
       sodipodi:t0="0"
       sodipodi:argument="-36.806286"
       sodipodi:radius="68.998032"
       sodipodi:revolution="18.821123"
       sodipodi:expansion="0.98582262"
       sodipodi:cy="6518.4199"
       sodipodi:cx="103.19778"
       id="shapes-f23.svgpath3090"
       style="fill:none;fill-opacity:0.75;fill-rule:evenodd;stroke:#000000;stroke-width:0.60429269;stroke-linecap:butt;stroke-linejoin:miter;marker:none;marker-start:none;marker-mid:none;marker-end:none;stroke-miterlimit:4;stroke-dasharray:0.60429269, 7.2515122;stroke-dashoffset:0;stroke-opacity:1"
       sodipodi:type="spiral"
       inkscape:export-filename="/media/oxy/socnetv/7-big.png"
       inkscape:export-xdpi="46.16"
       inkscape:export-ydpi="46.16" />
    <path
       transform="matrix(4.1544639,0,0,3.8529325,-142.03727,-15853.171)"
       d="M 104.59527,4260.9893 L 85.296407,4214.607 L 85.393576,4253.0357 L 104.54444,4206.5921 L 77.439974,4233.834 L 123.82225,4214.5351 L 85.393575,4214.6323 L 131.83715,4233.7832 L 104.59527,4206.6787 L 123.89413,4253.061 L 123.79696,4214.6323 L 104.6461,4261.0759 L 131.75056,4233.834 L 85.368289,4253.1328 L 123.79696,4253.0357 L 77.353386,4233.8848 L 104.59527,4260.9893 z"
       inkscape:randomized="0"
       inkscape:rounded="0"
       inkscape:flatsided="false"
       sodipodi:arg2="-2.3580603"
       sodipodi:arg1="1.5707963"
       sodipodi:r2="27.24193"
       sodipodi:r1="27.155294"
       sodipodi:cy="4233.834"
       sodipodi:cx="104.59527"
       sodipodi:sides="8"
       id="path11003"
       style="fill:none;fill-opacity:0.75;fill-rule:evenodd;stroke:#000000;stroke-width:0.34379637;stroke-linecap:butt;stroke-linejoin:miter;marker:none;marker-start:none;marker-mid:none;marker-end:none;stroke-miterlimit:4;stroke-dashoffset:0;stroke-opacity:1"
       sodipodi:type="star"
       inkscape:export-filename="/media/oxy/socnetv/7-big.png"
       inkscape:export-xdpi="46.16"
       inkscape:export-ydpi="46.16" />
    <path
       sodipodi:type="arc"
       style="opacity:1;fill:#cc0100;fill-opacity:1;stroke:#2a4200;stroke-opacity:1"
       id="path11005"
       sodipodi:cx="72.5"
       sodipodi:cy="399.14789"
       sodipodi:rx="13.214286"
       sodipodi:ry="12.5"
       d="M 85.714286,399.14789 A 13.214286,12.5 0 1 1 59.285714,399.14789 A 13.214286,12.5 0 1 1 85.714286,399.14789 z"
       transform="translate(140,-13.571429)"
       inkscape:export-filename="/media/oxy/socnetv/7-big.png"
       inkscape:export-xdpi="46.16"
       inkscape:export-ydpi="46.16" />
    <path
       sodipodi:type="arc"
       style="opacity:1;fill:#cc0100;fill-opacity:1;stroke:#2a4200;stroke-opacity:1"
       id="path11007"
       sodipodi:cx="72.5"
       sodipodi:cy="399.14789"
       sodipodi:rx="13.214286"
       sodipodi:ry="12.5"
       d="M 85.714286,399.14789 A 13.214286,12.5 0 1 1 59.285714,399.14789 A 13.214286,12.5 0 1 1 85.714286,399.14789 z"
       transform="translate(108.92857,61.071437)"
       inkscape:export-filename="/media/oxy/socnetv/7-big.png"
       inkscape:export-xdpi="46.16"
       inkscape:export-ydpi="46.16" />
    <path
       sodipodi:type="arc"
       style="opacity:1;fill:#cc0100;fill-opacity:1;stroke:#2a4200;stroke-opacity:1"
       id="path11009"
       sodipodi:cx="72.5"
       sodipodi:cy="399.14789"
       sodipodi:rx="13.214286"
       sodipodi:ry="12.5"
       d="M 85.714286,399.14789 A 13.214286,12.5 0 1 1 59.285714,399.14789 A 13.214286,12.5 0 1 1 85.714286,399.14789 z"
       transform="translate(220.35714,-47.499992)"
       inkscape:export-filename="/media/oxy/socnetv/7-big.png"
       inkscape:export-xdpi="46.16"
       inkscape:export-ydpi="46.16" />
    <path
       sodipodi:type="arc"
       style="opacity:1;fill:#cc0100;fill-opacity:1;stroke:#2a4200;stroke-opacity:1"
       id="path11011"
       sodipodi:cx="72.5"
       sodipodi:cy="399.14789"
       sodipodi:rx="13.214286"
       sodipodi:ry="12.5"
       d="M 85.714286,399.14789 A 13.214286,12.5 0 1 1 59.285714,399.14789 A 13.214286,12.5 0 1 1 85.714286,399.14789 z"
       transform="translate(298.21429,-13.928563)"
       inkscape:export-filename="/media/oxy/socnetv/7-big.png"
       inkscape:export-xdpi="46.16"
       inkscape:export-ydpi="46.16" />
    <path
       sodipodi:type="arc"
       style="opacity:1;fill:#cc0100;fill-opacity:1;stroke:#2a4200;stroke-opacity:1"
       id="path11013"
       sodipodi:cx="72.5"
       sodipodi:cy="399.14789"
       sodipodi:rx="13.214286"
       sodipodi:ry="12.5"
       d="M 85.714286,399.14789 A 13.214286,12.5 0 1 1 59.285714,399.14789 A 13.214286,12.5 0 1 1 85.714286,399.14789 z"
       transform="translate(331.07143,61.071438)"
       inkscape:export-filename="/media/oxy/socnetv/7-big.png"
       inkscape:export-xdpi="46.16"
       inkscape:export-ydpi="46.16" />
    <path
       sodipodi:type="arc"
       style="opacity:1;fill:#cc0100;fill-opacity:1;stroke:#2a4200;stroke-opacity:1"
       id="path11015"
       sodipodi:cx="72.5"
       sodipodi:cy="399.14789"
       sodipodi:rx="13.214286"
       sodipodi:ry="12.5"
       d="M 85.714286,399.14789 A 13.214286,12.5 0 1 1 59.285714,399.14789 A 13.214286,12.5 0 1 1 85.714286,399.14789 z"
       transform="translate(221.07143,167.50001)"
       inkscape:export-filename="/media/oxy/socnetv/7-big.png"
       inkscape:export-xdpi="46.16"
       inkscape:export-ydpi="46.16" />
    <path
       sodipodi:type="arc"
       style="opacity:1;fill:#cc0100;fill-opacity:1;stroke:#2a4200;stroke-opacity:1"
       id="path11017"
       sodipodi:cx="72.5"
       sodipodi:cy="399.14789"
       sodipodi:rx="13.214286"
       sodipodi:ry="12.5"
       d="M 85.714286,399.14789 A 13.214286,12.5 0 1 1 59.285714,399.14789 A 13.214286,12.5 0 1 1 85.714286,399.14789 z"
       transform="translate(141.21428,135.35715)"
       inkscape:export-filename="/media/oxy/socnetv/7-big.png"
       inkscape:export-xdpi="46.16"
       inkscape:export-ydpi="46.16" />
    <path
       sodipodi:type="arc"
       style="opacity:1;fill:#cc0100;fill-opacity:1;stroke:#2a4200;stroke-opacity:1"
       id="path11019"
       sodipodi:cx="72.5"
       sodipodi:cy="399.14789"
       sodipodi:rx="13.214286"
       sodipodi:ry="12.5"
       d="M 85.714286,399.14789 A 13.214286,12.5 0 1 1 59.285714,399.14789 A 13.214286,12.5 0 1 1 85.714286,399.14789 z"
       transform="translate(297.5,134.64286)"
       inkscape:export-filename="/media/oxy/socnetv/7-big.png"
       inkscape:export-xdpi="46.16"
       inkscape:export-ydpi="46.16" />
  </g>
</svg>
