<svg xmlns="http://www.w3.org/2000/svg" width="48" height="48"><g fill="red"><path d="M36.25 12.105a4.474 4.474 0 0 0 4.468-4.484 4.474 4.474 0 0 0-4.468-4.483 4.487 4.487 0 0 0-4.483 4.483 4.487 4.487 0 0 0 4.483 4.484zm-11.955 0a4.474 4.474 0 0 0 4.468-4.484 4.474 4.474 0 0 0-4.468-4.483A4.487 4.487 0 0 0 19.81 7.62a4.487 4.487 0 0 0 4.484 4.484zm0 2.988c-3.49 0-10.461 1.749-10.461 5.23v3.737h20.922v-3.736c0-3.482-6.972-5.23-10.461-5.23zm11.955 0c-.433 0-.919.03-1.442.083 1.734 1.247 2.937 2.929 2.937 5.148v3.736h8.966v-3.736c0-3.482-6.971-5.23-10.46-5.23z"/><path d="M24.295 12.105a4.474 4.474 0 0 0 4.468-4.484 4.474 4.474 0 0 0-4.468-4.483A4.487 4.487 0 0 0 19.81 7.62a4.487 4.487 0 0 0 4.484 4.484zm-11.956 0a4.474 4.474 0 0 0 4.469-4.484 4.474 4.474 0 0 0-4.469-4.483A4.487 4.487 0 0 0 7.856 7.62a4.487 4.487 0 0 0 4.483 4.484zm0 2.988c-3.49 0-10.46 1.749-10.46 5.23v3.737H22.8v-3.736c0-3.482-6.971-5.23-10.46-5.23zm11.956 0c-.434 0-.92.03-1.442.083 1.733 1.247 2.936 2.929 2.936 5.148v3.736h8.967v-3.736c0-3.482-6.972-5.23-10.461-5.23z"/></g><path d="M25.797 25.97a5.224 5.224 0 0 0-5.218 5.218 5.224 5.224 0 0 0 5.218 5.218 5.219 5.219 0 0 0 0-10.436zm13.42 0a5.224 5.224 0 0 0-5.218 5.218 5.224 5.224 0 0 0 5.218 5.218 5.219 5.219 0 0 0 0-10.436zm-13.42 2.237a2.98 2.98 0 0 1 2.981 2.98 2.98 2.98 0 0 1-2.981 2.982 2.982 2.982 0 1 1 0-5.962zm13.42 0a2.98 2.98 0 0 1 2.981 2.98 2.98 2.98 0 0 1-2.981 2.982 2.982 2.982 0 1 1 0-5.962zm-13.42 9.69c-3.228 0-9.693 1.618-9.693 4.846v4.102H48.91v-4.102c0-3.228-6.464-4.846-9.692-4.846-1.797 0-4.586.5-6.711 1.5-2.125-1-4.912-1.5-6.71-1.5zm0 2.237c3.638 0 7.455 1.811 7.455 2.609v1.865h-14.91v-1.865c0-.798 3.817-2.61 7.455-2.61zm13.42 0c3.638 0 7.455 1.811 7.455 2.609v1.865H35.49v-1.865c0-.679-.3-1.282-.777-1.818 1.32-.448 2.932-.791 4.505-.791z"/><path d="M25.797 37.898c-1.797 0-4.586.5-6.71 1.498-2.125-.999-4.914-1.498-6.71-1.498-3.228 0-9.692 1.618-9.692 4.846v4.1h32.804v-4.1c0-3.228-6.464-4.846-9.692-4.846zm-5.965 6.71H4.922v-1.864c0-.798 3.816-2.61 7.455-2.61 3.638 0 7.455 1.812 7.455 2.61zm13.42 0H22.069v-1.864c0-.679-.298-1.282-.776-1.82 1.32-.447 2.93-.79 4.504-.79 3.638 0 7.455 1.812 7.455 2.61zm-20.875-8.201a5.22 5.22 0 0 0 0-10.438 5.225 5.225 0 0 0-5.22 5.219 5.225 5.225 0 0 0 5.22 5.219zm0-8.201a2.981 2.981 0 1 1 0 5.964 2.981 2.981 0 1 1 0-5.964zm13.42 8.2a5.22 5.22 0 0 0 0-10.437 5.225 5.225 0 0 0-5.22 5.219 5.225 5.225 0 0 0 5.22 5.219zm0-8.2a2.981 2.981 0 1 1 0 5.964 2.981 2.981 0 1 1 0-5.964z"/></svg>