<svg xmlns="http://www.w3.org/2000/svg" width="48" height="48" viewBox="16 -12 48 48"><path d="M54.8633-4.0088c-4.1602-4.1603-9.6915-6.4514-15.575-6.4514-5.8834 0-11.4147 2.291-15.5749 6.4514-4.1602 4.1602-6.4513 9.6914-6.4513 15.5749 0 5.8834 2.291 11.4147 6.4513 15.575 4.1602 4.1602 9.6915 6.4512 15.575 6.4512 5.8834 0 11.4147-2.291 15.5749-6.4513 4.1602-4.1602 6.4513-9.6915 6.4513-15.575 0-5.8834-2.291-11.4146-6.4513-15.5748zM39.2883 31.001c-10.7164 0-19.4349-8.7185-19.4349-19.435 0-10.7164 8.7185-19.4349 19.435-19.4349 10.7164 0 19.4349 8.7185 19.4349 19.435 0 10.7164-8.7185 19.435-19.435 19.435z" stroke-width=".1" fill="#696969"/><path d="M45.5764 1.3808h3.7445v3.7445h1.8722V-.4914h-5.6167z" stroke-width=".0624"/><path d="M29.2172 17.4849h-2.088v6.2639h6.264v-2.088h-4.176z" stroke-width=".0696"/><path d="M42.3447 7.0399l1.5803-1.5804L45.5054 7.04 43.925 8.6203z" stroke-width=".0745"/><path d="M36.7671 12.6111l1.5086-1.5085 1.5085 1.5085-1.5086 1.5085z" stroke-width=".0711"/><path d="M34.2768 15.3043l1.4127-1.4126 1.4125 1.4126-1.4126 1.4126z" stroke-width=".0666"/><path d="M31.2021 18.3204l1.5779-1.5779 1.5778 1.5779-1.5778 1.5778z" stroke-width=".0744"/><text style="line-height:1.25;-inkscape-font-specification:'DejaVu Sans, Bold';font-variant-ligatures:normal;font-variant-caps:normal;font-variant-numeric:normal;font-feature-settings:normal;text-align:start" x="26.8814" y="9.7627" font-weight="700" font-size="16" font-family="DejaVu Sans" letter-spacing="0" word-spacing="0" writing-mode="lr"><tspan x="26.8814" y="9.7627" style="-inkscape-font-specification:'DejaVu Sans, Bold';font-variant-ligatures:normal;font-variant-caps:normal;font-variant-numeric:normal;font-feature-settings:normal;text-align:start">d</tspan></text><path d="M39.7514 9.627l1.5085-1.5086 1.5085 1.5085-1.5085 1.5085z" stroke-width=".0711"/><path d="M44.9334 4.2714l1.5804-1.5804 1.5804 1.5804-1.5804 1.5804z" stroke-width=".0745"/><circle cx="54.5424" cy="-4.1695" r="4.9165" fill="#fe0000" stroke="red" stroke-width=".9297" stroke-opacity="0"/><circle r="4.6859" cy="26.8593" cx="23.4219" fill="#fe0000" stroke="red" stroke-width=".8861" stroke-opacity="0"/></svg>