<svg xmlns="http://www.w3.org/2000/svg" width="48" height="48" fill="none" viewBox="0 0 24 24"><path stroke="#000" stroke-linecap="round" stroke-linejoin="round" stroke-width="2" d="m15 15 6 6m0-6-6 6m-5 0v-6.337c0-.245 0-.367-.028-.482a1 1 0 0 0-.12-.29c-.061-.1-.148-.187-.32-.36L3.468 7.47c-.173-.173-.26-.26-.322-.36a1 1 0 0 1-.12-.29C3 6.704 3 6.582 3 6.337V4.6c0-.56 0-.84.109-1.054a1 1 0 0 1 .437-.437C3.76 3 4.04 3 4.6 3h14.8c.56 0 .84 0 1.054.109a1 1 0 0 1 .437.437C21 3.76 21 4.04 21 4.6v1.737c0 .245 0 .367-.028.482a1 1 0 0 1-.12.29c-.061.1-.148.187-.32.36L17 11"/></svg>