<svg xmlns="http://www.w3.org/2000/svg" width="48" height="48" viewBox="0 0 48 48" fill="none">
  <title>Filter by attribute</title>
  <path d="M6 9.2c0-1.12 0-1.68.218-2.108a2 2 0 0 1 .874-.874C7.52 6 8.08 6 9.2 6h29.6c1.12 0 1.68 0 2.108.218a2 2 0 0 1 .874.874C42 7.52 42 8.08 42 9.2v3.475c0 .489 0 .734-.055.964a2 2 0 0 1-.24.579c-.123.202-.296.375-.642.721L28.937 27.063c-.346.346-.519.519-.642.721a2 2 0 0 0-.24.579c-.055.23-.055.475-.055.964V34l-8 8V29.325c0-.489 0-.733-.055-.963a2 2 0 0 0-.24-.58c-.123-.201-.296-.374-.642-.72L6.937 14.938c-.346-.346-.519-.519-.642-.72a2 2 0 0 1-.24-.58C6 13.41 6 13.164 6 12.675V9.2Z" stroke="#1f2937" stroke-width="4" stroke-linecap="round" stroke-linejoin="round"/>
  <path d="M30.5 24h9.2c.6 0 1.17.24 1.6.66l4.04 4.04a2.26 2.26 0 0 1 0 3.2l-10.44 10.44a2.26 2.26 0 0 1-3.2 0l-4.04-4.04c-.42-.43-.66-1-.66-1.6v-9.2A3.5 3.5 0 0 1 30.5 24Z" fill="#fef3c7" stroke="#1f2937" stroke-width="2" stroke-linejoin="round"/>
  <circle cx="32.5" cy="29.5" r="1.7" fill="#1f2937"/>
  <path d="M34 36h7M34 32h4" stroke="#1f2937" stroke-width="2" stroke-linecap="round"/>
</svg>
