<svg xmlns="http://www.w3.org/2000/svg" width="48" height="48" version="1"><defs><linearGradient id="b" x1="22.82" x2="12.85" y1="28.829" y2="12.239" gradientTransform="matrix(1.0594 0 0 .54494 1.2498 4.6594)" gradientUnits="userSpaceOnUse"><stop offset="0" stop-color="#f5a108" stop-opacity="0"/><stop offset="1" stop-color="#fefdc3" stop-opacity=".74251"/></linearGradient><linearGradient id="e" x1="24" x2="24" y1="5.0793" y2="41.079" gradientTransform="translate(0 1.9207)" gradientUnits="userSpaceOnUse"><stop offset="0" stop-color="#fff"/><stop offset="1" stop-color="#fff" stop-opacity="0"/></linearGradient><radialGradient id="a" cx="24.375" cy="37.75" r="17.375" gradientTransform="matrix(1 0 0 .44245 0 21.61)" gradientUnits="userSpaceOnUse"><stop offset="0"/><stop offset="1" stop-opacity="0"/></radialGradient><linearGradient id="c" x1="24" x2="24" y1="6" y2="51" gradientUnits="userSpaceOnUse"><stop offset="0" stop-color="#f8b17e"/><stop offset=".3121" stop-color="#e35d4f"/><stop offset=".57054" stop-color="#c6262e"/><stop offset="1" stop-color="#690b54"/></linearGradient><linearGradient id="d" x1="17" x2="17" y1="45" y2="6" gradientUnits="userSpaceOnUse"><stop offset="0" stop-color="#791235"/><stop offset="1" stop-color="#dd3b27"/></linearGradient></defs><path fill="url(#a)" d="M41.75 38.312a17.375 7.6875 0 0 1-34.75 0 17.375 7.6875 0 1 1 34.75 0z" color="#000" opacity=".3"/><path fill="url(#b)" fill-rule="evenodd" d="M14.037 8.5002c-5.3679-.26411-7.8686 3.1828-9.2213 6.4618-1.3424 4.318.55519 12.474 9.8542 11.853 5.3041 0 7.4123-5.4372 10.204-6.8487 2.537-.95885 2.7367-1.0447 5.417-1.0447 3.7249 0 10.461-2.6946 10.461-5.3682-1.1449-2.1454-4.1846-5.9662-9.7702-5.315-3.5554.41363-6.9191 2.954-7.7977 4.2181-2.1524-1.8976-4.9006-3.9566-9.1467-3.9566z"/><path fill="url(#c)" fill-rule="evenodd" stroke="url(#d)" d="M23.837 10.199c9.2887-9.2848 22.053-.72696 21.97 8.0785-.076759 8.0497-6.2144 11.905-21.634 26.223-16.139-13.32-21.826-16.391-21.742-25.942.083965-9.8865 11.012-17.306 21.406-8.3592z"/><path fill="none" stroke="url(#e)" d="M15.125 7.3269c-.83254-.07127-1.6625-.05326-2.4375.0625-5.1712.77241-9.0769 5.4914-9.125 11.156-.040014 4.5514 1.1564 7.3044 4.4688 10.812 3.1923 3.381 8.5145 7.4314 16.125 13.688 7.2829-6.7335 12.522-11.243 15.781-14.781 3.3822-3.6721 4.7143-6.258 4.75-10 .03678-3.8575-2.8589-7.9075-6.8438-9.8125-3.9848-1.905-8.8777-1.808-13.219 2.5312a1.1215 1.1215 0 0 1-1.5.0625c-2.7763-2.3898-5.5024-3.5049-8-3.7187z" opacity=".4"/></svg>