<svg xmlns="http://www.w3.org/2000/svg" xmlns:xlink="http://www.w3.org/1999/xlink" width="48" height="48"><defs><linearGradient id="d"><stop offset="0" stop-color="#fff"/><stop offset="1" stop-color="#d6d6d2"/></linearGradient><linearGradient id="b"><stop offset="0"/><stop offset="1" stop-opacity="0"/></linearGradient><linearGradient id="c"><stop offset="0" stop-color="#fff"/><stop offset="1" stop-color="#c9c9c9"/></linearGradient><linearGradient id="a"><stop offset="0"/><stop offset="1" stop-opacity="0"/></linearGradient><radialGradient id="k" cx="31.112698" cy="19.008621" r="8.6620579" fx="31.112698" fy="19.008621" gradientUnits="userSpaceOnUse" xlink:href="#a"/><linearGradient id="j" x1="20.661695" x2="22.626925" y1="35.817974" y2="36.217758" gradientTransform="rotate(10.46216 83.15217681 -58.6191973) scale(1.33835)" gradientUnits="userSpaceOnUse" xlink:href="#b"/><linearGradient id="i" x1="22.686766" x2="21.408455" y1="36.3904" y2="35.739632" gradientTransform="matrix(-1.30848 .28115 .28115 1.30848 57.41196 -17.2385)" gradientUnits="userSpaceOnUse" xlink:href="#b"/><linearGradient id="f" x1="22.686766" x2="21.408455" y1="36.3904" y2="35.739632" gradientTransform="matrix(-1.30848 .28115 .28115 1.30848 39.09106 -26.21225)" gradientUnits="userSpaceOnUse" xlink:href="#b"/><linearGradient id="e" x1="30.935921" x2="30.935921" y1="29.553486" y2="35.803486" gradientTransform="translate(-33.47918 -20.70004) scale(1.33835)" gradientUnits="userSpaceOnUse" xlink:href="#c"/><radialGradient id="h" cx="24.753788" cy="26.814409" r="17.986024" fx="24.753788" fy="26.814409" gradientTransform="matrix(1.35452 0 0 1.3664 -8.947464 -9.871365)" gradientUnits="userSpaceOnUse" xlink:href="#d"/><radialGradient id="l" cx="29.922075" cy="17.727694" r="17.986024" fx="29.922075" fy="17.727694" gradientTransform="matrix(.55849 0 0 .56339 14.87134 4.364123)" gradientUnits="userSpaceOnUse" xlink:href="#d"/><filter id="g" width="1.1522222" height="1.5668966" x="-.07611111" y="-.28344828"><feGaussianBlur stdDeviation="1.4531044"/></filter></defs><g fill-rule="evenodd" color="#000"><path fill="url(#e)" d="M13.365469 24.850231h5.678138l-3.312246-3.075659-.709768.946357-.709768-.709767-.946356 2.839069z" overflow="visible" style="marker:none"/><path fill="url(#f)" d="M19.882923 32.490544c1.647845-.777552 2.414892-2.679807 2.414892-2.679807-1.283638-5.410927-5.321479-9.158091-5.321479-9.158091s3.298488 8.488623 2.906587 11.837898z" opacity=".22784807" overflow="visible" style="marker:none"/></g><g color="#000"><rect width="38.183765" height="10.253048" x="5.3033009" y="35.448853" display="block" enable-background="accumulate" filter="url(#g)" opacity=".34857143" overflow="visible" rx="5.126524" ry="5.126524" style="marker:none" transform="matrix(.93519 0 0 .93519 1.5811694 2.2763322)"/><path fill="url(#h)" fill-rule="evenodd" stroke="#888a85" stroke-linecap="round" stroke-linejoin="round" stroke-width=".99999982" d="M17.918908 43.517006h14.195346c4.022015 0 8.003981-1.47477 9.463562-5.678138 1.386048-3.991597.23659-11.592866-8.753795-17.744182H16.026195c-8.9903852 5.678137-10.1138992 13.4435-8.0440285 17.98077 2.1086975 4.62238 5.6781375 5.44155 9.9367415 5.44155z" overflow="visible" style="marker:none"/><path fill="url(#i)" fill-rule="evenodd" d="M38.203826 41.464292c1.647845-.777552 2.414892-2.679806 2.414892-2.679806-1.283638-5.410928-5.32148-9.158091-5.32148-9.158091s3.298489 8.488622 2.906588 11.837897z" opacity=".29120878" overflow="visible" style="marker:none"/><path fill="url(#j)" fill-rule="evenodd" d="M11.642995 42.046125c-1.6697351-.72936-2.4170531-2.487026-2.4170531-2.487026 1.1259291-5.445929 4.9785631-9.430304 4.9785631-9.430304s-3.05053 8.580851-2.56151 11.91733z" opacity=".54945056" overflow="visible" style="marker:none"/><path fill="none" stroke="#fff" stroke-linecap="round" stroke-linejoin="round" stroke-width=".99999988" d="M17.593144 42.482789l14.527688-.030593c3.654575 0 7.272757-1.340038 8.598996-5.159397 1.259422-3.626935-.131138-10.533772-8.300185-16.12312l-15.955445-.336516C8.295151 25.99256 6.714018 33.0485 8.6253819 37.507773c1.9113661 4.459273 4.7005121 4.944423 8.9677621 4.975016z" opacity=".64285714" overflow="visible" style="marker:none"/><path fill="url(#k)" fill-rule="evenodd" d="M39.774755 19.008621a8.6620579 8.6620579 0 1 1-17.324115 0 8.6620579 8.6620579 0 1 1 17.324115 0z" overflow="visible" style="marker:none" transform="translate(-17.02698 -7.522361) scale(1.33835)"/><path fill="url(#l)" fill-rule="evenodd" stroke="#888a85" stroke-linecap="round" stroke-linejoin="round" stroke-width=".74718857" d="M39.774755 19.008621a8.6620579 8.6620579 0 1 1-17.324115 0 8.6620579 8.6620579 0 1 1 17.324115 0z" overflow="visible" style="marker:none" transform="translate(-16.85969 -12.20659) scale(1.33835)"/><path fill="none" stroke="#fff" stroke-linecap="round" stroke-linejoin="round" stroke-width=".9999979256736" d="M35.30547962 13.23361358a10.52546578 10.52546578 0 1 1-21.0509306 0 10.52546578 10.52546578 0 1 1 21.0509306 0z" opacity=".19620254" overflow="visible" style="marker:none"/></g></svg>