<svg xmlns="http://www.w3.org/2000/svg" width="48" height="48"><rect width="48" height="48" fill="none" ry="0"/><path fill="#fff" stroke="#fff" stroke-linejoin="round" stroke-width="8" d="M20 23h8c6.6518 0 12 4.8122 12 11.464V43H8c0-5-.074791-4.5429-.074791-8.536 0-6.6518 5.423-11.464 12.075-11.464z"/><path fill="#fff" stroke="#fff" stroke-width="8" d="M34.864 16a10.8645 10.93150308 0 1 1-21.729 0 10.8645 10.93150308 0 1 1 21.729 0z"/><path d="M20 23h8c6.6518 0 12 4.8122 12 11.464V43H8c0-5-.074791-4.5429-.074791-8.536 0-6.6518 5.423-11.464 12.075-11.464z"/><path fill="#fff" fill-rule="evenodd" stroke="#fff" stroke-linecap="round" stroke-linejoin="round" stroke-width="3" d="M18 23l6 8 5.518-8H18"/><path d="M34.864 16a10.8645 10.93150308 0 1 1-21.729 0 10.8645 10.93150308 0 1 1 21.729 0z"/></svg>