<svg xmlns="http://www.w3.org/2000/svg" width="48" height="48" viewBox="16 -12 48 48"><circle cx="40.813557" cy="11.627118" r="20.30327" fill="none" stroke="red" stroke-width=".518" opacity=".88"/><circle cx="40.813557" cy="11.627118" r="12.20339" fill="none" stroke="red" stroke-width=".3"/><circle cx="50.137589" cy="4.3728814" r="2.6779666"/><circle cx="29.513451" cy="6.1610537" r="2.6779666"/><circle cx="40.81356" cy="11.423728" r="2.9830513" fill="red"/><circle cx="42.901039" cy="-.58972818" r="2.9830513"/><circle cx="52.58849" cy="11.750255" r="2.6779666"/><circle cx="48.71386" cy="20.327522" r="2.6779666"/><circle cx="41.133099" cy="23.452396" r="2.6779666"/><circle cx="32.29287" cy="21.106188" r="2.6779666"/><circle cx="35.370869" cy="1.1672701" r="2.6779666"/><circle cx="21.114168" cy="8.539381" r="2.6779666"/><circle cx="29.311813" cy="13.955127" r="2.6779666"/><circle cx="23.271442" cy=".77319127" r="2.6779666"/><circle cx="28.880358" cy="-5.2671785" r="2.6779666"/><circle cx="36.636326" cy="-8.7188187" r="2.6779666"/><circle cx="45.7071" cy="-8.7188187" r="2.6779666"/><circle cx="52.46656" cy="-5.267179" r="2.6779666"/><circle cx="58.075474" cy=".19791746" r="2.6779666"/><circle cx="60.520386" cy="8.5393801" r="2.6779666"/><circle cx="60.376568" cy="17.16848" r="2.6779666"/><circle cx="56.493473" cy="24.647034" r="2.6779666"/><circle cx="50.021648" cy="29.393038" r="2.6779666"/><circle cx="42.543095" cy="31.837952" r="2.6779666"/><circle cx="34.56118" cy="31.190769" r="2.6779666"/><circle cx="27.729809" cy="27.379583" r="2.6779666"/><circle cx="23.127623" cy="21.914486" r="2.6779666"/><circle cx="20.538893" cy="16.017935" r="2.6779666"/></svg>