<svg xmlns="http://www.w3.org/2000/svg" width="46.9612" height="39.2266" viewBox="16 -12 46.9612 39.2266"><path d="M23.8269 23.2209h-3.9135V-8.0866h3.9135V-12H16v39.1343h7.8269zm0 0M55.1343-8.0866h3.9134V23.221h-3.9134v3.9134h7.8269V-12h-7.8269zm0 0" stroke-width=".1223"/><path d="M39.2816 12.8931c-2.038 0-3.696-1.658-3.696-3.696V6.7332c0-2.038 1.658-3.696 3.696-3.696 2.038 0 3.696 1.658 3.696 3.696v2.464c0 2.0379-1.658 3.696-3.696 3.696zm0-7.3919c-.6794 0-1.232.5527-1.232 1.232v2.464c0 .6792.5526 1.232 1.232 1.232s1.232-.5528 1.232-1.232v-2.464c0-.6793-.5526-1.232-1.232-1.232zM39.2816 25.2131c-2.038 0-3.696-1.658-3.696-3.696v-2.4639c0-2.038 1.658-3.696 3.696-3.696 2.038 0 3.696 1.658 3.696 3.696v2.464c0 2.0379-1.658 3.696-3.696 3.696zm0-7.3919c-.6794 0-1.232.5527-1.232 1.232v2.464c0 .6793.5526 1.232 1.232 1.232s1.232-.5527 1.232-1.232v-2.464c0-.6793-.5526-1.232-1.232-1.232zM49.138 25.2131c-2.038 0-3.696-1.658-3.696-3.696v-2.4639c0-2.038 1.658-3.696 3.696-3.696 2.038 0 3.696 1.658 3.696 3.696v2.464c0 2.0379-1.6579 3.696-3.696 3.696zm0-7.3919c-.6793 0-1.232.5527-1.232 1.232v2.464c0 .6793.5527 1.232 1.232 1.232.6794 0 1.232-.5527 1.232-1.232v-2.464c0-.6793-.5525-1.232-1.232-1.232zM49.138 12.729c-.6803 0-1.232-.5517-1.232-1.232V5.3343c-.642-.0423-1.1498-.5765-1.1498-1.2293 0-.6804.5516-1.232 1.232-1.232h1.1499c.6804 0 1.232.5516 1.232 1.232v7.392c0 .6802-.5516 1.2318-1.232 1.2318zM29.4254 12.8931c-2.038 0-3.696-1.658-3.696-3.696V6.7332c0-2.038 1.658-3.696 3.696-3.696 2.038 0 3.696 1.658 3.696 3.696v2.464c0 2.0379-1.658 3.696-3.696 3.696zm0-7.3919c-.6793 0-1.232.5527-1.232 1.232v2.464c0 .6792.5527 1.232 1.232 1.232s1.232-.5528 1.232-1.232v-2.464c0-.6793-.5527-1.232-1.232-1.232zM29.4254 25.2132c-.6804 0-1.232-.5516-1.232-1.232v-6.1625c-.6421-.0423-1.1499-.5765-1.1499-1.2293 0-.6804.5516-1.232 1.232-1.232h1.1499c.6804 0 1.232.5516 1.232 1.232v7.3919c0 .6803-.5516 1.232-1.232 1.232zM49.138.5729c-2.038 0-3.696-1.658-3.696-3.696v-2.464c0-2.038 1.658-3.696 3.696-3.696 2.038 0 3.696 1.658 3.696 3.696v2.464c0 2.038-1.6579 3.696-3.696 3.696zm0-7.392c-.6793 0-1.232.5527-1.232 1.232v2.464c0 .6793.5527 1.232 1.232 1.232.6794 0 1.232-.5527 1.232-1.232v-2.464c0-.6792-.5525-1.232-1.232-1.232zM39.2816.573c-.6804 0-1.232-.5517-1.232-1.232v-6.1626c-.6422-.0423-1.1499-.5765-1.1499-1.2293 0-.6804.5516-1.232 1.232-1.232h1.1499c.6804 0 1.232.5516 1.232 1.232v7.392c0 .6802-.5516 1.2319-1.232 1.2319zM29.4254.573c-.6804 0-1.232-.5517-1.232-1.232v-6.1626c-.6421-.0423-1.1499-.5765-1.1499-1.2293 0-.6804.5516-1.232 1.232-1.232h1.1499c.6804 0 1.232.5516 1.232 1.232v7.392c0 .6802-.5516 1.2319-1.232 1.2319z"/></svg>