<svg xmlns:svg="http://www.w3.org/2000/svg" xmlns="http://www.w3.org/2000/svg" data-name="Layer 1" viewBox="0 0 128 128" version="1.1">
  <defs>
    <filter id="a">
      <feGaussianBlur stdDeviation=".95806036"/>
    </filter>
  </defs>
  <path transform="matrix(2.04661 0 0 1.93506 -150.64549 -8128.5545)" d="m 104.59527,4260.9893 -19.298863,-46.3823 0.09717,38.4287 19.150864,-46.4436 -27.104466,27.2419 46.382276,-19.2989 -38.428675,0.097 46.443575,19.1509 -27.24188,-27.1045 19.29886,46.3823 -0.0972,-38.4287 -19.15086,46.4436 27.10446,-27.2419 -46.382271,19.2988 38.428671,-0.097 -46.443574,-19.1509 z" style="opacity:1;fill:none;fill-opacity:.75;fill-rule:evenodd;stroke:#000;stroke-width:.34379637;stroke-linecap:butt;stroke-linejoin:miter;stroke-miterlimit:4;stroke-dashoffset:0;stroke-opacity:.34741785;marker:none;marker-start:none;marker-mid:none;marker-end:none"/>
  <path transform="matrix(2.05118 0 0 1.93963 -151.42047 -8150.12)" d="m 104.59527,4260.9893 -19.298863,-46.3823 0.09717,38.4287 19.150864,-46.4436 -27.104466,27.2419 46.382276,-19.2989 -38.428675,0.097 46.443575,19.1509 -27.24188,-27.1045 19.29886,46.3823 -0.0972,-38.4287 -19.15086,46.4436 27.10446,-27.2419 -46.382271,19.2988 38.428671,-0.097 -46.443574,-19.1509 z" style="opacity:1;fill:none;fill-opacity:.75;fill-rule:evenodd;stroke:#000;stroke-width:.34379637;stroke-linecap:butt;stroke-linejoin:miter;stroke-miterlimit:4;stroke-dashoffset:0;stroke-opacity:.34741785;marker:none;marker-start:none;marker-mid:none;marker-end:none;filter:url(#a)"/>
  <path transform="matrix(-.17152 .59543 -.64011 -.15954 4250.7144 1042.3016)" d="m 103.19778,6518.4199 c 0.36965,0.459 -0.43058,0.7245 -0.75891,0.6112 -0.87059,-0.3005 -0.88847,-1.4597 -0.45146,-2.1142 0.77579,-1.1617 2.44726,-1.1256 3.45191,-0.3021 1.46661,1.2021 1.37138,3.4426 0.15551,4.7817 -1.61409,1.7777 -4.43859,1.6205 -6.106001,0.01 -2.091512,-2.0198 -1.871229,-5.4337 0.133977,-7.4261 2.422034,-2.4066 6.427534,-2.1227 8.742784,0.2775 2.72214,2.822 2.37438,7.42 -0.42059,10.0566 -3.22035,3.038 -8.411007,2.6263 -11.367927,-0.5632 -3.353781,-3.6174 -2.878076,-9.4007 0.705415,-12.677 4.013602,-3.6696 10.389312,-3.1299 13.984272,0.8473 3.98519,4.4089 3.38155,11.3767 -0.98896,15.2897 -4.80351,4.3007 -12.363037,3.6331 -16.593535,-1.1304 -4.615974,-5.1975 -3.884538,-13.3483 1.271518,-17.8958 5.590947,-4.9311 14.332737,-4.1359 19.196877,1.4124 5.24601,5.9839 4.38695,15.3163 -1.55328,20.4966 -6.3764,5.5608 -16.298875,4.638 -21.795123,-1.6939 -5.875289,-6.7685 -4.888785,-17.2807 1.834359,-23.0925 7.160224,-6.1896 18.261834,-5.1395 24.388914,1.9747 6.50382,7.5516 5.39005,19.2422 -2.11486,25.6843 -7.94264,6.8178 -20.221926,5.6404 -26.978739,-2.255 -7.131632,-8.3333 -5.890755,-21.2009 2.39487,-28.2722 8.723817,-7.4453 22.179399,-6.1409 29.564979,2.5347 7.75876,9.114 6.39094,23.1572 -2.67443,30.8568 -9.5039,8.0721 -24.134477,6.6409 -32.147957,-2.814 -8.385269,-9.8936 -6.890641,-25.1112 2.953571,-33.4383 10.28299,-8.6983 26.087356,-7.1404 34.727956,3.093 9.01117,10.6722 7.38987,27.063 -3.23235,36.0169 -11.06117,9.3239 -28.03819,7.6393 -37.305201,-3.3716 -9.636494,-11.45 -7.888661,-29.0129 3.510799,-38.5929 11.838529,-9.9489 29.987122,-8.1379 39.879882,3.6499 10.26128,12.2269 8.38703,30.9609 -3.78893,41.1663 -12.61512,10.5735 -31.934266,8.6361 -42.452177,-3.9279 -10.885563,-13.0031 -8.885008,-32.9072 4.066783,-43.7374 13.39098,-11.1975 33.879734,-9.1339 45.022224,4.2056 11.50936,13.7786 9.3826,34.8518 -4.34437,46.3064 -14.16617,11.8211 -35.823614,9.6313 -47.590157,-4.483 -12.132693,-14.5536 -9.879844,-36.795 4.621693,-48.8734 14.940744,-12.4442 37.766014,-10.1283 50.156104,4.7603 12.75559,15.3278 10.37674,38.7366 -4.89878,51.4383 -15.71472,13.0669 -39.706992,10.6251 -52.72017,-5.0372 -13.378068,-16.1015 -10.87331,-40.677 5.175659,-54.0015 16.488123,-13.6892 41.646621,-11.1215 55.282431,5.314 14.00015,16.8746 11.36957,42.6159 -5.45232,56.5629 -17.261,14.311 -43.584961,11.6176 -57.84299,-5.5906 -14.621839,-17.6472 -11.86552,-44.5537 5.728783,-59.1226 18.033362,-14.9326 45.522077,-12.1134 60.401917,5.8669 15.24317,18.4194 12.36119,46.4902 -6.00505,61.6808 -18.80524,15.5537 -47.458025,12.6089 -62.959292,-6.1431 -15.864138,-19.191 -12.856577,-48.4256 6.281146,-64.2374 19.576658,-16.1745 49.392836,-13.1042 65.515166,6.4191 16.48477,19.9622 13.3517,50.3598 -6.55706,66.7926 -20.34763,16.7949 -51.32658,13.5991 -68.069613,-6.695 -17.105074,-20.733 -13.846564,-52.2931 6.832817,-69.3463 21.118173,-17.4151 53.259276,-14.0939 70.622676,6.9706 17.72506,21.5033 14.34118,54.2253 -7.10841,71.8987 -21.88831,18.035 -55.19097,14.5884 -73.174414,-7.2461 -18.344747,-22.2733 -14.835558,-56.1565 7.383852,-74.4498 22.658047,-18.6545 57.121692,-15.0827 75.724872,7.5215 18.96413,23.0428 15.3297,58.0867 -7.65915,76.9996 -23.42741,19.2737 -59.051491,15.5767 -78.274091,-7.7967 -19.583238,-23.812 -15.823624,-60.0161 7.934299,-79.5483 24.196396,-19.8927 60.980382,-16.0705 80.822122,8.0719 20.20206,24.5807 16.31732,61.9445 -8.20932,82.0957 -24.96503,20.5113 -62.908404,16.5641 -83.368991,-8.3468 -20.820624,-25.3492 -16.810818,-63.8721 8.4842,-84.642 25.733323,-21.1298 64.835581,-17.0575 85.914751,8.6216 21.43892,26.1173 17.3041,65.7988 -8.75896,87.1872 -26.50128,21.748 -66.761939,17.5507 -88.459419,-8.8963 -22.056968,-26.8851 -17.797192,-67.7248 9.033592,-89.7314 27.268917,-22.3659 68.687497,-18.0436 91.003037,9.1709 22.67477,27.6526 18.29008,69.65 -9.30811,92.2745 -28.03624,22.9835 -70.612283,18.5364 -93.54563,-9.4454 -23.292328,-28.4197 -18.782789,-71.5744 9.582506,-94.8165 28.803256,-23.601 72.536324,-19.0291 96.087234,9.7196 6.50754,7.9438 11.18999,17.3364 13.62514,27.3121" style="fill:none;fill-opacity:.75;fill-rule:evenodd;stroke:#000;stroke-width:.60429269;stroke-linecap:butt;stroke-linejoin:miter;stroke-miterlimit:4;stroke-dasharray:.60429269,7.2515122;stroke-dashoffset:0;stroke-opacity:1;marker:none;marker-start:none;marker-mid:none;marker-end:none"/>
  <path transform="matrix(2.07934 0 0 1.92842 -153.89015 -8100.2627)" d="m 104.59527,4260.9893 -19.298863,-46.3823 0.09717,38.4287 19.150864,-46.4436 -27.104466,27.2419 46.382276,-19.2989 -38.428675,0.097 46.443575,19.1509 -27.24188,-27.1045 19.29886,46.3823 -0.0972,-38.4287 -19.15086,46.4436 27.10446,-27.2419 -46.382271,19.2988 38.428671,-0.097 -46.443574,-19.1509 z" style="fill:none;fill-opacity:.75;fill-rule:evenodd;stroke:#000;stroke-width:.34379637;stroke-linecap:butt;stroke-linejoin:miter;stroke-miterlimit:4;stroke-dashoffset:0;stroke-opacity:1;marker:none;marker-start:none;marker-mid:none;marker-end:none"/>
  <ellipse ry="6.2563543" rx="6.6138601" cy="27.365704" cx="23.558706" style="opacity:1;fill:#cc0100;fill-opacity:1;stroke:#2a4200;stroke-width:.50050831;stroke-opacity:1"/>
  <ellipse ry="6.2563543" rx="6.6138601" cy="64.725075" cx="8.0071983" style="opacity:1;fill:#cc0100;fill-opacity:1;stroke:#2a4200;stroke-width:.50050831;stroke-opacity:1"/>
  <ellipse ry="6.2563543" rx="6.6138601" cy="10.384183" cx="63.778126" style="opacity:1;fill:#cc0100;fill-opacity:1;stroke:#2a4200;stroke-width:.50050831;stroke-opacity:1"/>
  <ellipse ry="6.2563543" rx="6.6138601" cy="27.186966" cx="102.74625" style="opacity:1;fill:#cc0100;fill-opacity:1;stroke:#2a4200;stroke-width:.50050831;stroke-opacity:1"/>
  <ellipse ry="6.2563543" rx="6.6138601" cy="64.725075" cx="119.19156" style="opacity:1;fill:#cc0100;fill-opacity:1;stroke:#2a4200;stroke-width:.50050831;stroke-opacity:1"/>
  <ellipse ry="6.2563543" rx="6.6138601" cy="117.99348" cx="64.135612" style="opacity:1;fill:#cc0100;fill-opacity:1;stroke:#2a4200;stroke-width:.50050831;stroke-opacity:1"/>
  <ellipse ry="6.2563543" rx="6.6138601" cy="101.90571" cx="24.166466" style="opacity:1;fill:#cc0100;fill-opacity:1;stroke:#2a4200;stroke-width:.50050831;stroke-opacity:1"/>
  <ellipse ry="6.2563543" rx="6.6138601" cy="101.54819" cx="102.38876" style="opacity:1;fill:#cc0100;fill-opacity:1;stroke:#2a4200;stroke-width:.50050831;stroke-opacity:1"/>
</svg>
