<svg xmlns:svg="http://www.w3.org/2000/svg" xmlns="http://www.w3.org/2000/svg" data-name="Layer 1" viewBox="0 0 64 64" version="1.1">
  <defs>
    <filter id="a">
      <feGaussianBlur stdDeviation=".95806036"/>
    </filter>
  </defs>
  <path d="M 31.943209,58.776829 11.775867,12.94908 11.877413,50.918324 31.890094,5.0300055 3.5658862,31.946201 52.035438,12.87804 11.877412,12.973881 60.411015,31.895812 31.943209,5.115373 52.110549,50.943125 52.00897,12.97388 31.996295,58.862197 60.320495,31.946004 11.850954,51.014067 52.00897,50.918228 3.4753677,31.996295 Z" style="opacity:1;fill:none;fill-opacity:.75;fill-rule:evenodd;stroke:#000;stroke-width:.34933963;stroke-linecap:butt;stroke-linejoin:miter;stroke-miterlimit:4;stroke-dashoffset:0;stroke-opacity:.34741785;marker:none;marker-start:none;marker-mid:none;marker-end:none"/>
  <path transform="matrix(1.04733 0 0 .99038 -77.754714 -4162.2793)" d="m 104.59527,4260.9893 -19.298863,-46.3823 0.09717,38.4287 19.150863,-46.4436 -27.104465,27.2419 46.382275,-19.2989 -38.428674,0.097 46.443574,19.1509 -27.24188,-27.1045 19.29886,46.3823 -0.0972,-38.4287 -19.15086,46.4436 27.10446,-27.2419 -46.38227,19.2988 38.42867,-0.097 -46.443573,-19.1509 z" style="opacity:1;fill:none;fill-opacity:.75;fill-rule:evenodd;stroke:#000;stroke-width:.34379637;stroke-linecap:butt;stroke-linejoin:miter;stroke-miterlimit:4;stroke-dashoffset:0;stroke-opacity:.34741785;marker:none;marker-start:none;marker-mid:none;marker-end:none;filter:url(#a)"/>
  <path d="m 30.456297,31.758108 c -0.182394,0.075 -0.199087,-0.189928 -0.133302,-0.280519 0.174461,-0.240204 0.554901,-0.151209 0.730546,0.03497 0.311748,0.330496 0.153564,0.835727 -0.203575,1.074085 -0.521338,0.347964 -1.245286,0.136498 -1.576474,-0.342245 -0.439665,-0.635541 -0.140922,-1.48146 0.531485,-1.857205 0.843324,-0.471342 1.939835,-0.126269 2.41542,0.645672 0.574458,0.932409 0.130873,2.127064 -0.856376,2.63544 -1.160746,0.597721 -2.633105,0.117433 -3.250075,-0.947095 -0.710909,-1.226554 -0.12176,-2.771118 1.179662,-3.410282 1.476032,-0.724962 3.32459,-0.109219 4.081582,1.247152 0.847871,1.519174 0.113101,3.413599 -1.501651,4.182578 -1.790025,0.852452 -4.014521,0.10132 -4.910688,-1.54619 -0.984962,-1.810739 -0.104712,-4.054658 1.822695,-4.952804 2.103015,-0.979987 4.702972,-0.09364 5.737723,1.844392 1.122039,2.101494 0.09655,4.694459 -2.142861,5.721318 -2.415221,1.107474 -5.390196,0.08607 -6.563095,-2.14192 -1.259062,-2.391589 -0.08845,-5.33312 2.462417,-6.488324 2.726771,-1.234877 6.076191,-0.07861 7.386924,2.43884 1.395934,2.681117 0.08046,5.970767 -2.781352,7.254034 -3.037766,1.362176 -6.761191,0.07123 -8.209465,-2.735252 -1.532734,-2.970166 -0.07251,-6.607492 3.099779,-8.018577 3.348239,-1.489369 7.445223,-0.06389 9.030773,3.031197 1.669412,3.258781 0.06466,7.243387 -3.417695,8.782079 -3.658327,1.616436 -8.128429,0.0566 -9.851044,-3.326734 -1.805957,-3.54701 -0.05686,-7.878516 3.735195,-9.544625 3.968001,-1.743404 8.81084,-0.04935 10.670337,3.621894 1.942394,3.834885 0.04909,8.512935 -4.052335,10.306286 -4.277295,1.87027 -9.492489,0.04214 -11.488714,-3.916706 -2.078714,-4.122435 -0.0413,-9.146682 4.369103,-11.067144 4.586278,-1.997026 10.17348,-0.03494 12.30627,4.211207 2.21491,4.409686 0.03358,9.779827 -4.685549,11.827247 -4.894918,2.123689 -10.853812,0.02777 -13.123004,-4.5054 -2.351042,-4.696672 -0.02588,-10.412396 5.001688,-12.586647 5.203286,-2.250259 11.533554,-0.02062 13.939012,4.799319 2.487042,4.983385 0.0182,11.044422 -5.317534,13.34539 -5.51138,2.376736 -12.212707,0.01349 -14.754354,-5.092987 -2.62297,-5.269865 -0.01053,-11.675934 5.633094,-14.103515 5.819273,-2.503115 12.891372,-0.0064 15.569068,5.386412 2.758789,5.556116 0.0029,12.306963 -5.948449,14.861044 -6.126865,2.629424 -13.569484,-7.15e-4 -16.383115,-5.679594 -2.894529,-5.84215 0.0047,-12.937544 6.263507,-15.618034 6.434258,-2.755648 14.247175,0.0078 17.196625,5.972576 3.030189,6.127979 -0.01238,13.56768 -6.578374,16.37448 -6.741421,2.881799 -14.924349,-0.01489 -18.009566,-6.265344 -3.165732,-6.413607 0.01999,-14.197402 6.893028,-17.130429 7.048383,-3.007873 15.601135,0.02196 18.821968,6.557912 3.301254,6.699063 -0.02759,14.826726 -7.207441,17.885904 -7.355185,3.133871 -16.277472,-0.02902 -19.633898,-6.850298 -3.436654,-6.98433 0.03519,-15.455672 7.521686,-18.640918 7.661758,-3.259806 16.953425,0.03607 20.445319,7.142504 3.571998,7.269434 -0.04275,16.084254 -7.835732,19.395489 -7.968173,3.385672 -17.628965,-0.04309 -21.2563,-7.434538 -3.70725,-7.55437 0.05035,-16.712481 8.149623,-20.149635 8.274427,-3.511473 18.304184,0.05013 22.066803,7.726404 3.842473,7.839156 -0.05789,17.340379 -8.463294,20.903384 -8.58049,3.637215 -18.979024,-0.05715 -22.876895,-8.018113 -3.977634,-8.123797 0.06545,-17.96795 8.776814,-21.656741 8.886428,-3.762891 19.653516,0.06417 23.686577,8.309671 4.112701,8.408285 -0.07298,18.59521 -9.090191,22.409716 -9.192177,3.888517 -20.327661,-0.07118 -24.495846,-8.601079 -4.2477001,-8.692632 0.08053,-19.222162 9.403394,-23.162329 9.497803,-4.014081 21.001525,0.07818 25.304768,8.892352 4.382669,8.976851 -0.08807,19.848823 -9.716493,23.914582 -9.803241,4.1396 -21.675042,-0.08517 -26.113277,-9.183481 -4.5175371,-9.260928 0.09558,-20.475205 10.029393,-24.666506 10.108591,-4.265059 22.348279,0.09215 26.921438,9.474477 4.652404,9.544893 -0.103102,21.101311 -10.342161,25.418101 C 28.45605,53.855474 15.848633,49.365867 11.140587,39.699659 6.3533867,29.870928 11.251197,17.972507 21.795388,13.530288 32.514253,9.0144635 45.489273,13.636408 50.332137,23.586386 55.25406,33.698835 50.213989,45.939113 39.364818,50.506719 28.340999,55.147849 14.998533,50.39362 10.020923,40.159996 4.9643409,29.763947 10.146574,17.181936 21.300635,12.489007 c 11.328625,-4.7663988 25.03841,0.120065 30.150692,10.63722 5.191236,10.679545 -0.133119,23.603156 -11.591919,28.421368 -3.166279,1.331357 -6.646246,1.989818 -10.119979,1.917537" style="fill:none;fill-opacity:.75;fill-rule:evenodd;stroke:#000;stroke-width:.19720951;stroke-linecap:butt;stroke-linejoin:miter;stroke-miterlimit:4;stroke-dasharray:.19720952,2.36651414;stroke-dashoffset:0;stroke-opacity:1;marker:none;marker-start:none;marker-mid:none;marker-end:none"/>
  <path d="M 32.034475,58.776237 11.544612,13.105738 11.647778,50.944692 31.980509,5.2138367 3.2033317,32.037672 52.448021,13.034942 11.647777,13.130452 60.957547,31.987455 32.034475,5.2989103 52.524336,50.96941 52.421138,13.130452 32.08841,58.861309 60.865582,32.037475 11.620899,51.040108 52.421138,50.944595 3.111368,32.087593 Z" style="fill:none;fill-opacity:.75;fill-rule:evenodd;stroke:#000;stroke-width:.35151729;stroke-linecap:butt;stroke-linejoin:miter;stroke-miterlimit:4;stroke-dashoffset:0;stroke-opacity:1;marker:none;marker-start:none;marker-mid:none;marker-end:none"/>
  <ellipse ry="3.1945019" rx="3.3770449" cy="13.15474" cx="11.589867" style="opacity:1;fill:#cc0100;fill-opacity:1;stroke:#2a4200;stroke-width:.25556013;stroke-opacity:1"/>
  <ellipse ry="3.1945019" rx="3.3770449" cy="32.23048" cx="3.6492438" style="opacity:1;fill:#cc0100;fill-opacity:1;stroke:#2a4200;stroke-width:.25556013;stroke-opacity:1"/>
  <ellipse ry="3.1945019" rx="3.3770449" cy="4.4839549" cx="32.125946" style="opacity:1;fill:#cc0100;fill-opacity:1;stroke:#2a4200;stroke-width:.25556013;stroke-opacity:1"/>
  <ellipse ry="3.1945019" rx="3.3770449" cy="13.063477" cx="52.023113" style="opacity:1;fill:#cc0100;fill-opacity:1;stroke:#2a4200;stroke-width:.25556013;stroke-opacity:1"/>
  <ellipse ry="3.1945019" rx="3.3770449" cy="32.23048" cx="60.420109" style="opacity:1;fill:#cc0100;fill-opacity:1;stroke:#2a4200;stroke-width:.25556013;stroke-opacity:1"/>
  <ellipse ry="3.1945019" rx="3.3770449" cy="59.42939" cx="32.308479" style="opacity:1;fill:#cc0100;fill-opacity:1;stroke:#2a4200;stroke-width:.25556013;stroke-opacity:1"/>
  <ellipse ry="3.1945019" rx="3.3770449" cy="51.214954" cx="11.900189" style="opacity:1;fill:#cc0100;fill-opacity:1;stroke:#2a4200;stroke-width:.25556013;stroke-opacity:1"/>
  <ellipse ry="3.1945019" rx="3.3770449" cy="51.032402" cx="51.84058" style="opacity:1;fill:#cc0100;fill-opacity:1;stroke:#2a4200;stroke-width:.25556013;stroke-opacity:1"/>
</svg>
