/* XPM */
static char * socnetv_xpm[] = {
"32 32 49 1",
" 	c None",
".	c #B40B00",
"+	c #B50A00",
"@	c #AB0E00",
"#	c #CC0100",
"$	c #B00C00",
"%	c #CE0100",
"&	c #D10000",
"*	c #941700",
"=	c #A61000",
"-	c #9D1300",
";	c #A21200",
">	c #B10C00",
",	c #CD0100",
"'	c #000000",
")	c #950F00",
"!	c #CF0000",
"~	c #CE0000",
"{	c #A71000",
"]	c #B30B00",
"^	c #D30000",
"/	c #4A1100",
"(	c #850D00",
"_	c #9D0C00",
":	c #761200",
"<	c #7C0F00",
"[	c #8D1000",
"}	c #B60A00",
"|	c #A40C00",
"1	c #A20C00",
"2	c #A11200",
"3	c #D00000",
"4	c #C20400",
"5	c #5F1400",
"6	c #4B1400",
"7	c #6C1100",
"8	c #671500",
"9	c #D20000",
"0	c #671300",
"a	c #8D0E00",
"b	c #9D1400",
"c	c #CD0000",
"d	c #930F00",
"e	c #A60C00",
"f	c #3A1500",
"g	c #CB0200",
"h	c #9D1500",
"i	c #B20B00",
"j	c #B20C00",
"                                ",
"               .+               ",
"              @##$              ",
"               %&*              ",
"                                ",
"     =                   -;     ",
"    >,&            '    )!~{    ",
"    ]#^/                (!~=    ",
"     _:              '   <[     ",
"                                ",
"                                ",
"                                ",
"                    '           ",
"                       '        ",
"                                ",
" }|                          1} ",
"}#!                          !#}",
"234                          432",
"                                ",
"        '                       ",
"                                ",
"                                ",
"                                ",
"                                ",
"     56                  78     ",
"    ;&90                a3&b    ",
"    >#cd    '      '    e,~{    ",
"     $@                  @=     ",
"                f               ",
"               g9h              ",
"              =,#i              ",
"               j+               "};
