<svg xmlns:svg="http://www.w3.org/2000/svg" xmlns="http://www.w3.org/2000/svg" data-name="Layer 1" viewBox="0 0 128 128">
  <path d="M114.80369,103.81029a10.7983,10.7983,0,0,0-6.08219,1.82719L85.8563,82.65512a28.84085,28.84085,0,0,0,4.63409-7.48468q.31944-.75332.59427-1.52875a28.465,28.465,0,0,0,1.56717-7.364h10.49429a11.11305,11.11305,0,1,0,0-4.55535H92.65183a28.48951,28.48951,0,0,0-1.56633-7.36294q-.27651-.77582-.59511-1.53021a28.83562,28.83562,0,0,0-4.631-7.48208l22.98182-22.86482A11.10744,11.10744,0,0,0,122.78263,5.33709a11.11312,11.11312,0,0,0-18.97238,7.85926,10.79787,10.79787,0,0,0,1.82719,6.08211L82.652,42.1468a28.6716,28.6716,0,0,0-16.37431-6.80326V24.85392a11.11309,11.11309,0,1,0-4.55542,0V35.34408a28.69016,28.69016,0,0,0-16.37064,6.80119L22.48224,19.15886A11.10744,11.10744,0,0,0,5.33705,5.21741a11.11841,11.11841,0,0,0,0,15.71852,11.01619,11.01619,0,0,0,7.85926,3.25386A10.79889,10.79889,0,0,0,19.2785,22.3626l22.865,22.9822a28.82986,28.82986,0,0,0-4.634,7.48438q-.31944.75447-.59427,1.52952a28.4685,28.4685,0,0,0-1.56717,7.36363H24.85389a11.11313,11.11313,0,1,0,0,4.55535H35.3481a28.49228,28.49228,0,0,0,1.56633,7.364c.18434.51729.383,1.02822.59679,1.52875a28.83741,28.83741,0,0,0,4.63019,7.48178L19.15882,105.5178a11.09964,11.09964,0,1,0,5.03093,9.28593,10.7983,10.7983,0,0,0-1.82719-6.08219l22.986-22.8688A28.66573,28.66573,0,0,0,61.72229,92.656v10.49016a11.11309,11.11309,0,1,0,4.55542,0V92.65554a28.68263,28.68263,0,0,0,16.37056-6.80081l22.86949,22.98649a11.09964,11.09964,0,1,0,9.28593-5.03093ZM110.29288,8.54083a6.58654,6.58654,0,0,1,9.311,0,6.617,6.617,0,0,1,0,9.311,6.58387,6.58387,0,0,1-9.311-9.311ZM17.85183,17.70708a6.58664,6.58664,0,1,1,1.9272-4.65544A6.57137,6.57137,0,0,1,17.85183,17.70708Zm-.1447,101.75216a6.58673,6.58673,0,0,1-9.311,0,6.61706,6.61706,0,0,1,0-9.311,6.58389,6.58389,0,1,1,9.311,9.311Zm101.75208.1447a6.61706,6.61706,0,0,1-9.311,0,6.5828,6.5828,0,1,1,9.311,0Z" style="fill:#000"/>
</svg>
