<?xml version="1.0" encoding="UTF-8" standalone="no"?>
<svg
   xmlns:dc="http://purl.org/dc/elements/1.1/"
   xmlns:cc="http://creativecommons.org/ns#"
   xmlns:rdf="http://www.w3.org/1999/02/22-rdf-syntax-ns#"
   xmlns:svg="http://www.w3.org/2000/svg"
   xmlns="http://www.w3.org/2000/svg"
   width="48"
   height="48"
   viewBox="0 0 48 48"
  >
  <path
     class="cls-1"
     d="m 43.403873,31.111117 a 20.61285,20.61285 0 0 0 6e-4,-13.81414 q -0.19819,-0.55592 -0.42642,-1.09636 A 20.59366,20.59366 0 0 0 24.15819,3.6087173 l -0.15766,-10e-4 -0.14745,10e-4 A 20.59922,20.59922 0 0 0 5.0218703,16.200617 q -0.22883,0.54059 -0.42582,1.09576 a 20.6152,20.6152 0 0 0 -5.3e-4,13.81474 c 0.132,0.37046 0.27431,0.73641 0.42747,1.09516 A 20.59152,20.59152 0 0 0 23.84286,44.798167 l 0.15766,10e-4 0.14745,-10e-4 a 20.59774,20.59774 0 0 0 18.830083,-12.5919 q 0.22884,-0.53969 0.42582,-1.09515 z M 16.15085,8.9958673 q -0.31165,0.51581 -0.60053,1.0753297 a 25.53735,25.53735 0 0 0 -2.10048,5.77368 H 9.0696703 A 17.07743,17.07743 0 0 1 16.15085,8.9958673 Z M 6.8861203,24.202767 a 17.02665,17.02665 0 0 1 0.7081,-4.87592 H 12.8089 a 38.07806,38.07806 0 0 0 0,9.7538 H 7.5942103 a 17.04533,17.04533 0 0 1 -0.70809,-4.87788 z m 2.18355,8.35924 H 13.44984 a 25.59321,25.59321 0 0 0 2.1,5.77473 q 0.28855,0.55772 0.59933,1.07412 a 17.0778,17.0778 0 0 1 -7.0794997,-6.84885 z m 13.1895697,8.31177 c -2.13916,-1.09741 -4.06372,-4.15709 -5.20387,-8.31177 h 5.20387 z m 0,-11.79314 h -5.92909 a 33.81917,33.81917 0 0 1 0,-9.7538 h 5.92909 z m 0,-13.23577 h -5.20387 c 1.14015,-4.15423 3.06471,-7.2137597 5.20387,-8.3113197 z m 16.672223,0 h -4.38138 a 25.47162,25.47162 0 0 0 -2.10048,-5.77368 q -0.28855,-0.5574897 -0.60053,-1.0753297 a 17.08343,17.08343 0 0 1 7.08239,6.8490197 z M 25.74128,7.5329573 c 2.13856,1.09756 4.06312,4.1570897 5.20327,8.3119197 h -5.20327 z m 0,33.3408297 v -8.31178 h 5.20327 c -1.14015,4.15529 -3.06471,7.21496 -5.20327,8.31177 z m 0,-11.79314 v -9.7538 h 5.928493 a 33.81917,33.81917 0 0 1 0,9.7538 z m 6.108923,10.33022 q 0.31,-0.51468 0.59941,-1.07352 a 25.49644,25.49644 0 0 0 2.10048,-5.77533 h 4.38138 a 17.08879,17.08879 0 0 1 -7.08127,6.84885 z m 8.55611,-10.3302 h -5.21531 a 38.04192,38.04192 0 0 0 6e-4,-9.7538 h 5.21469 a 17.16071,17.16071 0 0 1 0,9.7538 z"
     id="path8"
     style="fill:#000000" />
</svg>
